<?xml version="1.0" encoding="UTF-8"?>
<svg version="1.1" xmlns="http://www.w3.org/2000/svg" width="1024" height="1024">
<path d="M0 0 C337.92 0 675.84 0 1024 0 C1024 337.92 1024 675.84 1024 1024 C686.08 1024 348.16 1024 0 1024 C0 686.08 0 348.16 0 0 Z " fill="#D0CFCB" transform="translate(0,0)"/>
<path d="M0 0 C0.7225751 -0.00380567 1.4451502 -0.00761134 2.18962151 -0.01153234 C4.61169325 -0.0218415 7.03353033 -0.01794322 9.4556179 -0.01409245 C11.2094112 -0.01854522 12.96320249 -0.0238594 14.71699083 -0.02996117 C19.53735331 -0.04414697 24.35765132 -0.04580435 29.17803168 -0.04536426 C34.3765819 -0.04701197 39.57510551 -0.06007767 44.77364159 -0.07155704 C56.14149769 -0.09441027 67.50933513 -0.10232808 78.87721109 -0.10738349 C85.97606656 -0.11064027 93.0749166 -0.11716266 100.173769 -0.12438488 C119.83043875 -0.14395159 139.48710345 -0.16035526 159.14378357 -0.16326141 C161.03074295 -0.16354277 161.03074295 -0.16354277 162.95582273 -0.16382981 C165.50602174 -0.16419606 168.05622075 -0.16455976 170.60641976 -0.16492092 C171.87233477 -0.16510373 173.13824979 -0.16528654 174.44252586 -0.16547489 C176.3437176 -0.16574572 176.3437176 -0.16574572 178.28331725 -0.16602201 C198.81903065 -0.16956337 219.35463917 -0.19658308 239.8903162 -0.23397278 C260.97660112 -0.27205756 282.06283399 -0.29141891 303.14915407 -0.29172093 C314.9872887 -0.29230547 326.82529823 -0.30079575 338.66340065 -0.32971859 C348.74419229 -0.35423474 358.82481321 -0.36151373 368.90562661 -0.34647106 C374.04740645 -0.33930309 379.18884918 -0.34015502 384.3305912 -0.36288166 C389.04235703 -0.38350792 393.75352738 -0.38083715 398.46528701 -0.36000682 C400.16517982 -0.3565189 401.8651159 -0.36139222 403.56495197 -0.37571125 C417.57725998 -0.48609215 428.20478606 1.94911411 438.52113914 12.01787472 C439.22110008 12.75779659 439.92106102 13.49771847 440.64223289 14.26006222 C441.42920555 15.09150753 441.42920555 15.09150753 442.23207664 15.93974972 C450.96426667 26.60947734 450.23893308 41.16266872 450.17348289 54.10381222 C450.17618478 56.00465244 450.18007295 57.90549131 450.18507957 59.80632687 C450.19094192 63.77004445 450.18251787 67.73339892 450.16371727 71.69707394 C450.14092977 76.7435895 450.15407051 81.78925374 450.17800713 86.83573818 C450.19255397 90.75489721 450.18781868 94.67385885 450.17749596 98.59302425 C450.17485314 100.45230876 450.1780109 102.31161199 450.18741417 104.1708746 C450.24841742 119.6175114 448.92908683 133.37276514 437.82973289 145.18974972 C429.31529857 153.18919809 418.87784414 157.51309612 407.1903677 157.50615788 C406.46979709 157.50846556 405.74922649 157.51077325 405.00682041 157.51315087 C402.59768593 157.51843524 400.18881999 157.50947989 397.77969933 157.50057125 C396.03299155 157.50144364 394.28628403 157.50319523 392.5395779 157.50574958 C387.74389564 157.51022059 382.94830275 157.50222277 378.15263188 157.49219346 C372.97956415 157.48355775 367.80650148 157.48647921 362.63342857 157.48799801 C353.67208792 157.48904678 344.71077638 157.48277096 335.74944305 157.47152233 C322.79285745 157.45526928 309.83628593 157.45005952 296.87969124 157.44754635 C275.85855456 157.44316894 254.83743341 157.42985859 233.81630516 157.41094112 C213.39605855 157.39258351 192.97581616 157.37842642 172.55556297 157.3699255 C170.66755337 157.36913733 170.66755337 157.36913733 168.74140216 157.36833324 C162.42701855 157.36572316 156.11263492 157.36319575 149.79825127 157.36070943 C97.41290109 157.33997551 45.02756775 157.30474872 -7.35776711 157.26006222 C-7.35776711 156.60006222 -7.35776711 155.94006222 -7.35776711 155.26006222 C-8.16214211 155.19818722 -8.96651711 155.13631222 -9.79526711 155.07256222 C-19.34277902 152.8950595 -26.64856394 146.65526683 -32.11948586 138.69756222 C-37.72080742 129.58354747 -39.50230157 121.85997511 -39.51889992 111.12847042 C-39.52386482 110.34693096 -39.52882973 109.5653915 -39.53394508 108.76016903 C-39.54845975 106.19371796 -39.55535128 103.62732872 -39.56089211 101.06084347 C-39.56371948 100.17757067 -39.56654686 99.29429787 -39.56945992 98.38425922 C-39.58441035 93.7084985 -39.59366557 89.03276829 -39.59800148 84.35698605 C-39.60347526 79.5569895 -39.62749214 74.75727814 -39.65597343 69.95737076 C-39.67470998 66.2398872 -39.67981128 62.5224708 -39.68133736 58.80494404 C-39.68434037 57.03692411 -39.69228813 55.26890469 -39.70552254 53.50093174 C-39.80874484 38.64997221 -38.95478078 23.85461968 -28.50620461 12.19365597 C-20.40106482 4.71819836 -11.11028038 0.01686395 0 0 Z " fill="#FC6054" transform="translate(141.35776710510254,433.7399377822876)"/>
<path d="M0 0 C34.4375 0 34.4375 0 41.5625 6 C45.62921311 11.00518537 45.6366712 15.78092192 45 22 C43.58908525 27.19432308 41.28413741 30.12998749 36.75 33 C35.51118423 33.68722627 34.26464006 34.36154094 33 35 C33.47308594 35.47566406 33.94617188 35.95132813 34.43359375 36.44140625 C40.88183942 43.26674231 45.38393732 50.88983431 50 59 C55.09325451 47.61363776 58.96031803 35.78819412 63 24 C64.47476686 19.70680403 65.95495431 15.41551489 67.4375 11.125 C67.77950439 10.12621826 68.12150879 9.12743652 68.47387695 8.09838867 C68.7905835 7.18162354 69.10729004 6.2648584 69.43359375 5.3203125 C69.71259521 4.50836426 69.99159668 3.69641602 70.27905273 2.85986328 C71 1 71 1 72 0 C74.86267567 -0.07325168 77.700719 -0.09238205 80.5625 -0.0625 C81.36880859 -0.05798828 82.17511719 -0.05347656 83.00585938 -0.04882812 C85.00393756 -0.03700518 87.00197783 -0.01906914 89 0 C92.31574386 7.7766756 95.3887671 15.5965867 98.20703125 23.56640625 C98.57728928 24.60772202 98.9475473 25.64903778 99.32902527 26.72190857 C100.10115282 28.8967752 100.87159132 31.07224219 101.64038086 33.24829102 C102.82137314 36.58758913 104.01100357 39.92372852 105.20117188 43.25976562 C105.95364574 45.38262799 106.70561737 47.50566846 107.45703125 49.62890625 C107.81320023 50.62571915 108.1693692 51.62253204 108.53633118 52.64955139 C108.8605455 53.57158859 109.18475983 54.49362579 109.51879883 55.44360352 C109.80572098 56.25346207 110.09264313 57.06332062 110.38825989 57.89772034 C111 60 111 60 111 63 C106.05 63 101.1 63 96 63 C92 52.375 92 52.375 92 49 C84.41 49 76.82 49 69 49 C68.525625 50.93875 68.05125 52.8775 67.5625 54.875 C66.125 60.75 66.125 60.75 65 63 C55.1 63 45.2 63 35 63 C30.1875 54.25 30.1875 54.25 28.68823242 51.51269531 C28.28967041 50.79178711 27.8911084 50.07087891 27.48046875 49.328125 C27.07723389 48.5949707 26.67399902 47.86181641 26.25854492 47.10644531 C25.63556519 46.06375488 25.63556519 46.06375488 25 45 C24.397323 43.93797363 24.397323 43.93797363 23.7824707 42.85449219 C21.5713951 40.24298637 21.5713951 40.24298637 15 39 C15 46.92 15 54.84 15 63 C10.05 63 5.1 63 0 63 C0 42.21 0 21.42 0 0 Z " fill="#FDF7F6" transform="translate(362,484)"/>
<path d="M0 0 C5.71712197 4.4233767 9.48792269 10.65578331 11 17.71484375 C12.04199306 29.72147826 11.84936735 40.63914174 4.3125 50.52734375 C-0.51171967 55.69353342 -6.89742774 59.28868941 -14 59.71484375 C-14.81210938 59.77671875 -15.62421875 59.83859375 -16.4609375 59.90234375 C-24.99658637 60.28489384 -31.9713873 58.29086247 -38.8125 53.08984375 C-43.56999431 48.69225444 -47.58340386 41.28533433 -48.17700195 34.77294922 C-48.72105231 15.32152346 -48.72105231 15.32152346 -44 8.71484375 C-43.25363281 7.66103516 -43.25363281 7.66103516 -42.4921875 6.5859375 C-31.80899194 -6.90470248 -14.38068729 -9.24071508 0 0 Z " fill="#FEF8F6" transform="translate(224,488.28515625)"/>
<path d="M0 0 C5.28 0 10.56 0 16 0 C19.10988588 3.30274702 20.21774867 5.05642861 22 9 C23.2060992 10.96439095 24.43807908 12.91305601 25.69140625 14.84765625 C26.98316376 16.91840256 28.2735092 18.99003035 29.5625 21.0625 C30.20896484 22.09955078 30.85542969 23.13660156 31.52148438 24.20507812 C32.73184009 26.14681868 33.941635 28.08890903 35.15063477 30.03149414 C37.42990665 33.69006402 39.71545164 37.34472263 42 41 C42.33 27.47 42.66 13.94 43 0 C47.29 0 51.58 0 56 0 C56 20.79 56 41.58 56 63 C41 63 41 63 37.15625 59.23046875 C36.2142879 57.58050025 35.33008542 55.89649001 34.5 54.1875 C34.01700439 53.31544922 33.53400879 52.44339844 33.03637695 51.54492188 C32.08182634 49.82073778 31.14781109 48.08499106 30.23681641 46.33740234 C28.7089951 43.45004324 26.98320655 40.72740352 25.1875 38 C21.78870351 32.66855452 18.3944854 27.33419135 15 22 C14.67 35.53 14.34 49.06 14 63 C9.38 63 4.76 63 0 63 C0 42.21 0 21.42 0 0 Z " fill="#FEFAFA" transform="translate(244,484)"/>
<path d="M0 0 C5.94 0 11.88 0 18 0 C20.57552132 7.1797449 23.14912045 14.36017332 25.71940422 21.54179478 C26.91315183 24.87700327 28.107717 28.21191404 29.30419922 31.54614258 C30.68184825 35.38534305 32.05585287 39.22583915 33.4296875 43.06640625 C34.07041702 44.84961021 34.07041702 44.84961021 34.72409058 46.6688385 C35.12435455 47.78947189 35.52461853 48.91010529 35.93701172 50.06469727 C36.28786835 51.04398697 36.63872498 52.02327667 37.00021362 53.03224182 C38.10795562 56.32045462 39.04677565 59.66371478 40 63 C34.72 63 29.44 63 24 63 C20 51.25 20 51.25 20 49 C12.41 49 4.82 49 -3 49 C-3.33 51.31 -3.66 53.62 -4 56 C-4.83477268 58.45241507 -5.89559163 60.64713 -7 63 C-11.62 63 -16.24 63 -21 63 C-20.28696698 58.72180189 -19.82149554 56.18071688 -18.1875 52.4375 C-16.64999829 48.76063142 -15.37969423 45.09541407 -14.25390625 41.2734375 C-11.68634118 32.81680802 -8.71528241 24.51126985 -5.75 16.1875 C-5.18985691 14.60881167 -4.62995955 13.03003612 -4.0703125 11.45117188 C-2.71681176 7.63293829 -1.35831929 3.8165355 0 0 Z " fill="#FDF9F7" transform="translate(532,484)"/>
<path d="M0 0 C3.63 0 7.26 0 11 0 C14.96260647 7.35377324 17.73346659 15.09937413 20.5625 22.9375 C21.04841963 24.27033129 21.53474519 25.60301466 22.02148438 26.93554688 C24.44641612 33.59242257 26.80392819 40.26390095 29 47 C29.38929688 45.78570313 29.77859375 44.57140625 30.1796875 43.3203125 C34.93820428 28.67415666 40.37726418 14.33401667 46 0 C49.63 0 53.26 0 57 0 C57.92327601 3.69310403 58.27009794 6.89400108 58.5 10.6796875 C58.54060547 11.32890167 58.58121094 11.97811584 58.62304688 12.64700317 C58.7521965 14.72280398 58.8762827 16.79886902 59 18.875 C59.1242659 20.90694165 59.24959825 22.93881491 59.37522888 24.97067261 C59.45847237 26.31936577 59.54104177 27.6681007 59.62294006 29.01687622 C59.89933216 33.52985647 60.2205434 38.0381397 60.55859375 42.546875 C60.89471052 47.17423598 61.11403621 51.7367411 61.0625 56.375 C61.05347656 57.45523438 61.04445313 58.53546875 61.03515625 59.6484375 C61.02355469 60.42445313 61.01195312 61.20046875 61 62 C58.36 62 55.72 62 53 62 C51.68 46.16 50.36 30.32 49 14 C48.01 17.3 47.02 20.6 46 24 C45.05010509 26.40666652 44.09871567 28.81291687 43.11523438 31.20605469 C40.82316739 36.94826454 38.81417786 42.79787364 36.75 48.625 C36.2866379 49.92844927 35.82309738 51.23183512 35.359375 52.53515625 C34.23783489 55.68948781 33.1180857 58.84444269 32 62 C29.69 62 27.38 62 25 62 C22.30826115 54.47351478 19.61909754 46.94612121 16.93403625 39.41725159 C15.63896917 35.78693416 14.33916965 32.15836224 13.03515625 28.53125 C12.50247785 27.04171183 11.96991369 25.5521328 11.4375 24.0625 C11.1988623 23.4032251 10.96022461 22.7439502 10.71435547 22.06469727 C9.50943028 18.68005075 8.7111507 15.55575348 8 12 C7.01 28.5 6.02 45 5 62 C2.36 62 -0.28 62 -3 62 C-3.26585071 48.60900114 -2.42828436 35.35317329 -1.5 22 C-1.35497901 19.85680392 -1.21044445 17.71357486 -1.06640625 15.5703125 C-0.71653322 10.3798119 -0.36011895 5.18979938 0 0 Z " fill="#0B0908" transform="translate(615,485)"/>
<path d="M0 0 C6.84633892 5.05325015 10.07911926 10.56397933 11.625 18.9375 C12.61034572 26.95711931 10.60321133 34.25393407 6.8125 41.3125 C3.21788349 45.62603981 -0.96705607 48.57969522 -6.64453125 49.17578125 C-12.46601765 49.34568638 -15.83679647 48.94800544 -20.375 44.9375 C-26.72693157 38.4378491 -28.53938916 32.54546613 -28.9375 23.6875 C-28.75008896 15.15177912 -26.28914725 8.65837989 -20.83984375 2.0859375 C-15.13071858 -2.93584827 -6.83212816 -2.15085516 0 0 Z " fill="#D8D5CB" transform="translate(901.375,492.0625)"/>
<path d="M0 0 C0 4.62 0 9.24 0 14 C-1.505625 13.505 -3.01125 13.01 -4.5625 12.5 C-11.23694076 10.52864619 -16.66185905 10.28265693 -23.140625 12.95703125 C-27.22657578 15.24894062 -29.3441859 18.59468406 -31.3125 22.8125 C-32.8539514 29.95922922 -32.56192294 36.50055495 -29 43 C-25.53138948 47.19884432 -22.51114402 49.60909729 -17.03515625 50.21875 C-10.88137061 50.47831214 -5.80622989 48.96266926 0 47 C0 51.29 0 55.58 0 60 C-8.26866102 64.13433051 -18.06387648 64.36276766 -27.01171875 62.30859375 C-35.60377014 59.16387662 -40.81428226 54.15185136 -45.0546875 46.1484375 C-48.49874233 38.32104015 -48.28629531 27.257033 -46.28125 19.0625 C-45.34367285 16.88490146 -44.29487224 14.98290667 -43 13 C-42.66097656 12.38125 -42.32195312 11.7625 -41.97265625 11.125 C-38.02870777 4.61257262 -31.44899401 1.3795976 -24.5625 -1.375 C-16.07026063 -2.86486656 -8.33870678 -1.93361317 0 0 Z " fill="#FEFCFB" transform="translate(170,485)"/>
<path d="M0 0 C7.31777918 3.92023885 11.84863324 8.42757472 15.38671875 16.06640625 C18.31914732 26.09839872 18.3948496 38.16343246 14 47.75 C9.96072335 54.39679092 4.46713872 60.06220461 -3.109375 62.43359375 C-11.69301288 64.01848114 -19.73822092 63.88330877 -27.3828125 59.421875 C-33.68873279 54.81459745 -38.18769991 48.11550962 -40.08984375 40.51953125 C-41.93237089 28.63961815 -40.30042109 17.79401627 -33.31640625 7.921875 C-25.01420481 -1.43372404 -11.77020378 -3.94661665 0 0 Z M-25.5 10.875 C-31.53197602 19.39231135 -32.83347855 27.6095143 -31.5 37.875 C-29.75715888 44.58493831 -25.60389957 51.33973973 -19.609375 55.04296875 C-15.0290019 56.84967147 -9.86828985 56.6226683 -5.2109375 55.15234375 C0.68485925 52.42526173 3.82986678 48.86375861 6.1875 42.8125 C9.43080111 33.66240469 9.60806545 24.85508694 5.5 15.875 C2.23236311 11.0421247 -0.82217677 7.61362339 -6.5 5.875 C-13.88725706 4.91888362 -20.49939319 4.84373377 -25.5 10.875 Z " fill="#0A0806" transform="translate(904.5,485.125)"/>
<path d="M0 0 C16.17 0 32.34 0 49 0 C49 3.96 49 7.92 49 12 C43.39 12 37.78 12 32 12 C32 28.83 32 45.66 32 63 C27.38 63 22.76 63 18 63 C18 46.17 18 29.34 18 12 C12.06 12 6.12 12 0 12 C0 8.04 0 4.08 0 0 Z " fill="#FEFCFA" transform="translate(467,484)"/>
<path d="M0 0 C15.84 0 31.68 0 48 0 C48 3.63 48 7.26 48 11 C42.39 11 36.78 11 31 11 C31 28.16 31 45.32 31 63 C26.38 63 21.76 63 17 63 C17 46.17 17 29.34 17 12 C11.39 12 5.78 12 0 12 C0 8.04 0 4.08 0 0 Z " fill="#FEFAF8" transform="translate(307,484)"/>
<path d="M0 0 C2.64 0 5.28 0 8 0 C8.0093457 1.26070313 8.01869141 2.52140625 8.02832031 3.8203125 C8.06837372 8.52460278 8.13417501 13.22824963 8.20751953 17.93212891 C8.23564035 19.96296892 8.25689886 21.99391657 8.27099609 24.02490234 C8.29254898 26.95465855 8.33926222 29.88313265 8.390625 32.8125 C8.39185364 33.71178223 8.39308228 34.61106445 8.39434814 35.53759766 C8.51821312 40.94160264 9.4125304 44.72341522 12.14642334 49.4128418 C13 51 13 51 13 53 C17.59461475 55.37141407 21.94666693 55.57039386 27 55 C30.71868203 53.69157484 32.46303641 52.72212345 34.8125 49.5625 C36.52601986 45.86490451 37.12173481 42.65859499 37.20532227 38.59863281 C37.22526749 37.7380426 37.24521271 36.87745239 37.26576233 35.99078369 C37.29083107 34.61089264 37.29083107 34.61089264 37.31640625 33.203125 C37.33718735 32.25435486 37.35796844 31.30558472 37.37937927 30.32806396 C37.44467934 27.30211518 37.50366888 24.2760808 37.5625 21.25 C37.6057038 19.19660579 37.64931869 17.14322018 37.69335938 15.08984375 C37.80034073 10.0599832 37.90166323 5.03003668 38 0 C40.97 0 43.94 0 47 0 C47.0997891 5.76166891 47.17189842 11.52282129 47.21972656 17.28515625 C47.23969039 19.24032366 47.26687136 21.19543255 47.30175781 23.15039062 C47.7423138 48.49531724 47.7423138 48.49531724 41.04394531 56.27050781 C35.44801554 61.67848269 29.7951959 63.28955585 22.0625 63.375 C14.98280399 63.24844392 11.48244746 62.35256597 6.32421875 57.38671875 C0.10293276 50.69029875 -0.28859362 44.16430744 -0.1953125 35.3515625 C-0.1924826 34.33903412 -0.18965271 33.32650574 -0.18673706 32.28329468 C-0.17558254 29.06374062 -0.15048646 25.84446935 -0.125 22.625 C-0.1149641 20.43620195 -0.10583931 18.24739951 -0.09765625 16.05859375 C-0.0756587 10.70563342 -0.04222824 5.35283692 0 0 Z " fill="#0A0806" transform="translate(688,485)"/>
<path d="M0 0 C4.95849862 3.35830374 7.831064 7.12966341 9.02734375 13.05859375 C9.67675427 21.80065849 9.4630748 29.00619302 3.58984375 35.93359375 C0.08264051 38.84200619 -1.7247721 39.91732385 -6.28515625 40.43359375 C-10.71142671 39.98346455 -13.58338072 38.9432625 -16.97265625 36.05859375 C-22.36481254 29.03738722 -22.5779341 21.58852784 -21.97265625 13.05859375 C-20.73668276 7.35007212 -17.24041487 3.79288255 -12.97265625 0.05859375 C-8.54864917 -1.41607528 -4.2838718 -2.04438239 0 0 Z " fill="#FB6054" transform="translate(211.97265625,495.94140625)"/>
<path d="M0 0 C2.375 0.1875 2.375 0.1875 5 1 C6.3125 3.5625 6.3125 3.5625 7 6 C7.66 6 8.32 6 9 6 C9.9702321 7.65976812 10.92555673 9.328253 11.875 11 C12.40867187 11.928125 12.94234375 12.85625 13.4921875 13.8125 C16.66928686 20.52885512 17.29697469 26.84375462 17.2746582 34.15063477 C17.2823246 35.46688339 17.2823246 35.46688339 17.29014587 36.8097229 C17.30395492 39.6870216 17.30309216 42.56407853 17.30078125 45.44140625 C17.30467198 47.45344633 17.30900742 49.46548559 17.31376648 51.4775238 C17.32120927 55.68450592 17.32095079 59.89140407 17.31567383 64.09838867 C17.30987134 69.48065835 17.32683854 74.86258478 17.3500185 80.24479771 C17.36476912 84.39615374 17.3656259 88.54742726 17.36250877 92.69880486 C17.36302097 94.68307108 17.36823958 96.66734204 17.37832069 98.65158272 C17.39069821 101.42753415 17.38388633 104.20281851 17.37231445 106.97875977 C17.37995819 107.79194168 17.38760193 108.6051236 17.39547729 109.44294739 C17.34703637 114.71740902 16.30432077 118.25731392 14 123 C13.75636719 124.31871094 13.75636719 124.31871094 13.5078125 125.6640625 C11.75324353 133.73507977 2.23363986 141.54243371 -4.125 146.375 C-6.95814073 147.97634041 -8.83954107 148.44520198 -12 149 C-12.83321923 149.17373321 -13.66643846 149.34746643 -14.52490675 149.52646428 C-20.92464897 150.7929994 -26.99954673 151.2840295 -33.51376343 151.24723816 C-34.51362357 151.24965257 -35.51348371 151.25206699 -36.54364264 151.25455457 C-39.86689117 151.26015129 -43.18994394 151.25155641 -46.51318359 151.24291992 C-48.91247611 151.24399442 -51.31176837 151.24593559 -53.71105957 151.24867249 C-59.55813465 151.25301585 -65.40515814 151.24806963 -71.25222342 151.23882218 C-78.16462351 151.22830146 -85.07701211 151.22851257 -91.9894187 151.22899476 C-104.44819828 151.22949596 -116.90695235 151.22034982 -129.36572266 151.20581055 C-141.21077957 151.19199599 -153.05581381 151.18467377 -164.90087891 151.18530273 C-237.9394123 151.1883377 -310.96601512 150.91744289 -384 150 C-384 149.67 -384 149.34 -384 149 C-383.23510313 148.99978263 -382.47020626 148.99956526 -381.68213069 148.99934131 C-336.3215628 148.98581772 -290.96108115 148.94629865 -245.60056823 148.87314438 C-240.15086739 148.8643779 -234.70116623 148.85582805 -229.25146484 148.84741211 C-228.16655341 148.84573305 -227.08164198 148.84405398 -225.96385445 148.84232404 C-208.41022168 148.81567342 -190.85662156 148.80656035 -173.30297063 148.80395857 C-155.2836797 148.80089627 -137.26448299 148.77891754 -119.24523461 148.73947543 C-108.13146429 148.71574192 -97.01788222 148.7066631 -85.90409006 148.71648689 C-78.27705974 148.72181344 -70.6501977 148.70872187 -63.02321528 148.6813371 C-58.62653037 148.66608872 -54.23022224 148.65877875 -49.83352661 148.67340279 C-45.7998362 148.68663922 -41.76687293 148.67649483 -37.73326375 148.64856227 C-36.28215978 148.6424961 -34.83099018 148.64465665 -33.37992083 148.65637074 C-20.63034299 148.75115532 -8.82418279 146.42297461 1.10546875 137.875 C9.7128615 129.35634326 14.04851943 119.11175436 14.16885376 107.00117493 C14.17154266 106.22606064 14.17423157 105.45094635 14.17700195 104.65234375 C14.18357315 103.82393478 14.19014435 102.99552582 14.19691467 102.14201355 C14.2165817 99.40717463 14.22829867 96.6723906 14.23828125 93.9375 C14.24235678 92.99847839 14.2464323 92.05945679 14.25063133 91.09197998 C14.27146902 86.11682356 14.28577787 81.14169448 14.29516602 76.16650391 C14.30619537 71.05707828 14.34056169 65.94809234 14.38033772 60.83882141 C14.40663565 56.88538876 14.41486972 52.93205854 14.41844749 48.97854614 C14.42328341 47.09690397 14.43481059 45.21526543 14.45348549 43.33370972 C14.5960692 28.00937812 13.58659694 15.96211766 3 4 C1.98860963 2.67528596 0.98508681 1.34438899 0 0 Z " fill="#F3D5D3" transform="translate(576,442)"/>
<path d="M0 0 C1.30453125 -0.01417969 2.6090625 -0.02835937 3.953125 -0.04296875 C7.59801408 0.17827452 10.36893893 0.85922601 13.75 2.1875 C13.42 4.4975 13.09 6.8075 12.75 9.1875 C11.8425 9.0225 10.935 8.8575 10 8.6875 C6.52180169 8.20382416 3.07266217 8.02342808 -0.4375 7.9375 C-1.44167969 7.91171875 -2.44585938 7.8859375 -3.48046875 7.859375 C-6.69427911 8.24013673 -8.03124817 8.84404081 -10.25 11.1875 C-10.87997202 13.318726 -10.87997202 13.318726 -10.75 15.625 C-10.7603125 16.38683594 -10.770625 17.14867187 -10.78125 17.93359375 C-10.03288804 21.10862941 -8.80082382 22.16160456 -6.25 24.1875 C-3.17300257 25.73989035 -0.08423953 27.11312072 3.0859375 28.45507812 C8.29648654 30.75045104 12.80441239 33.35041836 16.10546875 38.1640625 C17.79786574 43.47716335 17.36490077 49.3427977 15.625 54.5625 C11.89137825 59.78957044 7.88878146 62.51733576 1.75 64.1875 C-5.97617206 64.8776569 -13.34615897 64.97784409 -20.25 61.1875 C-21.36680177 58.16132747 -21.23208628 56.24287954 -20.25 53.1875 C-17.65125125 53.63299979 -15.44408057 54.0932323 -13.0625 55.25 C-7.57624151 57.07875283 -2.16546713 56.8715954 3.25 54.9375 C5.92404223 53.06567044 6.96280729 52.33627083 7.75 49.1875 C7.62020911 45.55335521 7.47929415 43.11054147 5.19140625 40.21484375 C1.42380696 37.0862293 -2.88834227 35.30158543 -7.31835938 33.27539062 C-12.97728207 30.58647422 -18.00934611 27.35545384 -20.25 21.1875 C-21.09807351 15.85252591 -20.5498984 11.25203839 -17.59765625 6.69140625 C-15.20466206 4.02096346 -12.46692093 2.73638786 -9.25 1.1875 C-6.21673215 -0.32913393 -3.371154 0.01652526 0 0 Z " fill="#0A0907" transform="translate(766.25,483.8125)"/>
<path d="M0 0 C0.78568359 -0.00773437 1.57136719 -0.01546875 2.38085938 -0.0234375 C6.99946757 -0.00797772 10.71811314 0.49271992 15.0625 2.25 C14.7325 4.56 14.4025 6.87 14.0625 9.25 C13.175625 9.085 12.28875 8.92 11.375 8.75 C3.39540381 7.66334767 -5.14419616 6.6990177 -12.29296875 10.98828125 C-17.01145824 14.60840502 -20.53474813 19.44476534 -21.9375 25.25 C-22.89819642 33.42763537 -21.95099134 40.98581538 -17.9375 48.25 C-13.88198042 53.04550775 -9.1846391 55.97049942 -2.8515625 56.515625 C3.1590084 56.48707122 8.40396504 56.35550138 14.0625 54.25 C15.0625 55.25 15.0625 55.25 15.3125 58.1875 C15.23 59.198125 15.1475 60.20875 15.0625 61.25 C8.24218558 65.79687628 -1.82356988 65.25504985 -9.640625 63.71875 C-17.30111179 61.32159087 -23.58383449 57.04954502 -27.9375 50.25 C-32.60450626 40.16696178 -33.58879366 30.22252317 -29.96875 19.6640625 C-26.0587656 10.51114448 -20.43922968 5.6038852 -11.71875 1.10546875 C-7.78933038 -0.10315891 -4.08680643 -0.04003402 0 0 Z " fill="#0B0907" transform="translate(843.9375,483.75)"/>
<path d="M0 0 C-10.56786379 8.21944961 -22.65142982 8.57665953 -35.46380615 8.48101807 C-37.2148311 8.48276497 -38.96585502 8.48627207 -40.71687341 8.49137473 C-45.50136112 8.50027513 -50.28548741 8.48437932 -55.06992912 8.46426249 C-60.23950008 8.4469304 -65.40905194 8.45283825 -70.5786438 8.45587158 C-79.52629138 8.45796531 -88.47382197 8.44545377 -97.42144012 8.42292023 C-110.35805069 8.39036214 -123.29460489 8.37998931 -136.23125198 8.37496826 C-157.22190836 8.36622159 -178.21250244 8.33962303 -199.203125 8.30175781 C-219.58918955 8.26502148 -239.97523715 8.23671765 -260.36132812 8.21972656 C-261.61868758 8.21867567 -262.87604703 8.21762477 -264.17150828 8.21654204 C-270.47953863 8.21132175 -276.7875691 8.20626695 -283.09559965 8.20129442 C-335.39710949 8.15985194 -387.6985517 8.08942059 -440 8 C-440 7.34 -440 6.68 -440 6 C-440.99 5.67 -441.98 5.34 -443 5 C-442.10201441 5.00151888 -441.20402882 5.00303776 -440.27883154 5.00460267 C-387.0692187 5.09409473 -333.85961384 5.16273601 -280.64994082 5.20426132 C-274.2624767 5.20926421 -267.87501273 5.21444149 -261.48754883 5.21972656 C-260.21590773 5.2207758 -258.94426663 5.22182505 -257.63409095 5.22290608 C-237.03779406 5.24031625 -216.44154178 5.27185733 -195.84527136 5.30861118 C-174.71512881 5.34600354 -153.58500964 5.36823225 -132.45483536 5.37635398 C-119.41403207 5.38184527 -106.37335487 5.39919564 -93.33259039 5.43166587 C-84.39277333 5.45279267 -75.45302156 5.45920418 -66.51318134 5.45400551 C-61.35362595 5.4514409 -56.19429107 5.45540116 -51.03477478 5.4768219 C-46.31005692 5.4962943 -41.58570775 5.49726543 -36.86097287 5.48359558 C-35.15287584 5.4819062 -33.44475576 5.48697452 -31.73670406 5.49953273 C-23.10565264 5.559295 -15.62292815 5.58135571 -8 1 C-4.81766489 -0.75867049 -3.49684326 -1.24887259 0 0 Z " fill="#E17E7A" transform="translate(574,583)"/>
<path d="M0 0 C2.64 0 5.28 0 8 0 C8 20.46 8 40.92 8 62 C5.36 62 2.72 62 0 62 C0 41.54 0 21.08 0 0 Z " fill="#030100" transform="translate(794,485)"/>
<path d="M0 0 C1.33919885 -0.01576293 2.67839177 -0.03203735 4.01757812 -0.04882812 C5.29181641 -0.04947266 6.56605469 -0.05011719 7.87890625 -0.05078125 C9.02045166 -0.05376221 10.16199707 -0.05674316 11.33813477 -0.05981445 C14.80052342 0.35610856 16.69884941 1.17417926 19.4375 3.3125 C19.9609375 6.1953125 19.9609375 6.1953125 19.8125 9.4375 C19.77898437 10.51257813 19.74546875 11.58765625 19.7109375 12.6953125 C19.4375 15.3125 19.4375 15.3125 18.4375 16.3125 C13.1575 16.3125 7.8775 16.3125 2.4375 16.3125 C2.4375 33.1425 2.4375 49.9725 2.4375 67.3125 C-3.1725 67.3125 -8.7825 67.3125 -14.5625 67.3125 C-14.5625 50.4825 -14.5625 33.6525 -14.5625 16.3125 C-20.1725 16.3125 -25.7825 16.3125 -31.5625 16.3125 C-31.5625 12.0225 -31.5625 7.7325 -31.5625 3.3125 C-31.2325 3.3125 -30.9025 3.3125 -30.5625 3.3125 C-30.5625 7.2725 -30.5625 11.2325 -30.5625 15.3125 C-24.9525 15.3125 -19.3425 15.3125 -13.5625 15.3125 C-13.5625 32.1425 -13.5625 48.9725 -13.5625 66.3125 C-8.9425 66.3125 -4.3225 66.3125 0.4375 66.3125 C0.4375 49.1525 0.4375 31.9925 0.4375 14.3125 C6.0475 14.3125 11.6575 14.3125 17.4375 14.3125 C17.4375 10.6825 17.4375 7.0525 17.4375 3.3125 C1.9275 3.3125 -13.5825 3.3125 -29.5625 3.3125 C-29.5625 2.9825 -29.5625 2.6525 -29.5625 2.3125 C-19.63334993 0.62889084 -10.07555856 -0.02515117 0 0 Z " fill="#E5716B" transform="translate(337.5625,480.6875)"/>
<path d="M0 0 C0.99 0.33 1.98 0.66 3 1 C1.88121617 2.17262904 0.75476949 3.33795138 -0.375 4.5 C-1.00148438 5.1496875 -1.62796875 5.799375 -2.2734375 6.46875 C-4 8 -4 8 -6 8 C-6.2475 8.639375 -6.495 9.27875 -6.75 9.9375 C-7.44772701 11.64693118 -8.16509221 13.34980604 -8.953125 15.01953125 C-9.47132812 16.12361328 -9.47132812 16.12361328 -10 17.25 C-10.33 17.93578125 -10.66 18.6215625 -11 19.328125 C-13.5685808 26.19105183 -14.2924996 32.9112938 -14.22705078 40.19165039 C-14.22734283 41.06103241 -14.22763489 41.93041443 -14.22793579 42.82614136 C-14.22655529 45.66675199 -14.21105508 48.5070921 -14.1953125 51.34765625 C-14.19157781 53.33019365 -14.18873299 55.31273291 -14.18673706 57.29527283 C-14.17913651 62.48856795 -14.15951906 67.68174946 -14.1373291 72.875 C-14.11679325 78.18422916 -14.10771885 83.49347686 -14.09765625 88.80273438 C-14.07626955 99.20187256 -14.04217721 109.6009268 -14 120 C-14.66 119.67 -15.32 119.34 -16 119 C-19.76619988 97.17599408 -18.15141613 73.98373172 -17.5625 51.9375 C-17.5429425 51.17474762 -17.52338501 50.41199524 -17.50323486 49.62612915 C-16.8813407 25.8813407 -16.8813407 25.8813407 -15 24 C-14.73031727 22.25292495 -14.48424839 20.50217798 -14.25 18.75 C-13.38093215 13.71855455 -12.25134957 11.11074358 -8 8 C-7.01 7.67 -6.02 7.34 -5 7 C-4.855625 6.38125 -4.71125 5.7625 -4.5625 5.125 C-4 3 -4 3 -2.125 1.1875 C-1.42375 0.795625 -0.7225 0.40375 0 0 Z " fill="#D3B5B3" transform="translate(117,440)"/>
<path d="M0 0 C16.17 0 32.34 0 49 0 C49 0.33 49 0.66 49 1 C33.16 1 17.32 1 1 1 C1 4.3 1 7.6 1 11 C6.94 11 12.88 11 19 11 C19 27.5 19 44 19 61 C22.63 61 26.26 61 30 61 C30 44.5 30 28 30 11 C36.27 11 42.54 11 49 11 C49 11.33 49 11.66 49 12 C43.39 12 37.78 12 32 12 C32 28.83 32 45.66 32 63 C27.38 63 22.76 63 18 63 C18 46.17 18 29.34 18 12 C12.06 12 6.12 12 0 12 C0 8.04 0 4.08 0 0 Z " fill="#FCD3CE" transform="translate(467,484)"/>
<path d="M0 0 C5.94 0 11.88 0 18 0 C18 16.83 18 33.66 18 51 C22.62 51 27.24 51 32 51 C32 34.17 32 17.34 32 0 C37.61 0 43.22 0 49 0 C49 0.33 49 0.66 49 1 C44.05 1 39.1 1 34 1 C34.01571045 2.5041748 34.0314209 4.00834961 34.04760742 5.55810547 C34.10178459 11.12282994 34.13630562 16.68753097 34.16479492 22.25244141 C34.17990945 24.66393957 34.20040153 27.07541014 34.22631836 29.48681641 C34.26258425 32.94700928 34.27969956 36.40683971 34.29296875 39.8671875 C34.30845261 40.95055389 34.32393646 42.03392029 34.33988953 43.15011597 C34.34011612 44.1510025 34.34034271 45.15188904 34.34057617 46.18310547 C34.34723801 47.06690887 34.35389984 47.95071228 34.36076355 48.86129761 C34.24171158 49.5670694 34.12265961 50.27284119 34 51 C30.286007 53.47599533 28.29282091 53.23739325 23.875 53.1875 C22.61429687 53.18105469 21.35359375 53.17460938 20.0546875 53.16796875 C17 53 17 53 16 52 C15.90666295 50.40389018 15.88254628 48.80366572 15.88647461 47.20483398 C15.88655014 46.18385117 15.88662567 45.16286835 15.88670349 44.11094666 C15.89186478 43.0005452 15.89702606 41.89014374 15.90234375 40.74609375 C15.9037587 39.61551041 15.90517365 38.48492706 15.90663147 37.32008362 C15.91224981 33.69252935 15.92480542 30.06503576 15.9375 26.4375 C15.94251264 23.98502693 15.94707595 21.5325529 15.95117188 19.08007812 C15.9622252 13.05336187 15.97950212 7.02669124 16 1 C10.72 1 5.44 1 0 1 C0 0.67 0 0.34 0 0 Z " fill="#DD6E66" transform="translate(467,496)"/>
<path d="M0 0 C2.97337774 2.53611631 4.2368853 5.30582943 5.75 8.875 C6.19859375 9.90367187 6.6471875 10.93234375 7.109375 11.9921875 C8.06038903 15.20394541 8.0173558 16.84619701 7 20 C5.2537612 21.7462388 3.00121676 21.13221151 0.67773438 21.13671875 C-0.02029297 21.13285156 -0.71832031 21.12898437 -1.4375 21.125 C-2.13166016 21.12886719 -2.82582031 21.13273438 -3.54101562 21.13671875 C-8.74672012 21.12663994 -8.74672012 21.12663994 -11 20 C-12.85866105 16.07428256 -14.38602775 12.03493064 -16 8 C-21.94 7.67 -27.88 7.34 -34 7 C-34.268125 8.5675 -34.53625 10.135 -34.8125 11.75 C-35.47636159 15.631037 -36.177379 18.18616309 -39 21 C-42.09448242 21.54589844 -42.09448242 21.54589844 -45.85546875 21.609375 C-46.51710526 21.62591125 -47.17874176 21.64244751 -47.86042786 21.65948486 C-49.96954601 21.70799288 -52.07794323 21.72933927 -54.1875 21.75 C-55.61917695 21.77815777 -57.05082028 21.80808495 -58.48242188 21.83984375 C-61.98812393 21.91374893 -65.49368875 21.96330788 -69 22 C-69 21.01 -69 20.02 -69 19 C-59.43 19 -49.86 19 -40 19 C-39.01 15.04 -38.02 11.08 -37 7 C-36.67 6.34 -36.34 5.68 -36 5 C-28.41 5 -20.82 5 -13 5 C-9 16.75 -9 16.75 -9 19 C-4.05 19 0.9 19 6 19 C5.566875 17.79601562 5.13375 16.59203125 4.6875 15.3515625 C4.12483503 13.77610058 3.56234403 12.20057651 3 10.625 C2.71382813 9.8309375 2.42765625 9.036875 2.1328125 8.21875 C1.72675781 7.07792969 1.72675781 7.07792969 1.3125 5.9140625 C1.06113281 5.2123291 0.80976563 4.5105957 0.55078125 3.78759766 C0 2 0 2 0 0 Z " fill="#DD7068" transform="translate(467,528)"/>
<path d="M0 0 C9 -0.48 9 -0.48 13.125 1.5 C15.41676344 4.55568459 15.60700227 6.35827945 15.36328125 10.09765625 C14.86048824 12.73056157 13.95982195 14.18535005 12 16 C9.11788698 16.96070434 7.30149956 17.10581883 4.3125 17.0625 C2.1778125 17.0315625 2.1778125 17.0315625 0 17 C0 11.39 0 5.78 0 0 Z " fill="#F95A50" transform="translate(377,495)"/>
<path d="M0 0 C9.24 0 18.48 0 28 0 C28 0.33 28 0.66 28 1 C26.71802734 1.09087891 26.71802734 1.09087891 25.41015625 1.18359375 C23.75306641 1.30927734 23.75306641 1.30927734 22.0625 1.4375 C20.96035156 1.51871094 19.85820312 1.59992188 18.72265625 1.68359375 C16.08890097 1.70418084 16.08890097 1.70418084 15 3 C10.26748847 3.15775038 6.70215739 2.94043148 2 2 C2 21.47 2 40.94 2 61 C5.63 61 9.26 61 13 61 C13.33 53.74 13.66 46.48 14 39 C14.33 39 14.66 39 15 39 C15 46.92 15 54.84 15 63 C10.05 63 5.1 63 0 63 C0 42.21 0 21.42 0 0 Z " fill="#F6C7C3" transform="translate(362,484)"/>
<path d="M0 0 C5.28 0 10.56 0 16 0 C16.99 1.65 17.98 3.3 19 5 C18.34 5 17.68 5 17 5 C16.67 4.34 16.34 3.68 16 3 C11.38 2.34 6.76 1.68 2 1 C2 20.8 2 40.6 2 61 C5.63 61 9.26 61 13 61 C13 47.14 13 33.28 13 19 C13.66 19.33 14.32 19.66 15 20 C14.67 34.19 14.34 48.38 14 63 C9.38 63 4.76 63 0 63 C0 42.21 0 21.42 0 0 Z " fill="#F9CECA" transform="translate(244,484)"/>
<path d="M0 0 C4.29 0 8.58 0 13 0 C13 20.79 13 41.58 13 63 C8.05 63 3.1 63 -2 63 C-2.33 62.34 -2.66 61.68 -3 61 C1.62 61 6.24 61 11 61 C10.67 41.53 10.34 22.06 10 2 C7.03 2 4.06 2 1 2 C1 15.53 1 29.06 1 43 C0.01 43.495 0.01 43.495 -1 44 C-0.67 29.48 -0.34 14.96 0 0 Z " fill="#FEDFDC" transform="translate(287,484)"/>
<path d="M0 0 C7.68848372 7.04777675 11.79146851 15.76169174 12.2677002 26.22183228 C12.40188825 31.42523428 12.3644119 36.62755142 12.328125 41.83203125 C12.32506245 43.75632072 12.3231901 45.68061241 12.32244873 47.60490417 C12.3178662 51.62007246 12.30351545 55.6350379 12.28125 59.65014648 C12.25287386 64.79255707 12.24202634 69.93480907 12.2375679 75.07729053 C12.23341033 79.04326453 12.22359151 83.00920668 12.21169281 86.97516441 C12.20600488 88.87175939 12.20124134 90.76835738 12.19742584 92.66495705 C12.19054276 95.31160477 12.176903 97.95812847 12.16113281 100.60473633 C12.15945602 101.77447746 12.15945602 101.77447746 12.15774536 102.96784973 C12.12780368 106.76658811 11.9161149 110.30640892 11 114 C10.67 114 10.34 114 10 114 C9.99413376 112.84012573 9.98826752 111.68025146 9.98222351 110.48522949 C9.92493741 99.53877437 9.85214483 88.59251678 9.76428509 77.64626312 C9.7196139 72.01907288 9.68035044 66.39195449 9.65356445 60.76464844 C9.62749929 55.33099154 9.58707374 49.89761166 9.53681374 44.46412659 C9.52016682 42.39420525 9.50863903 40.32423603 9.50238609 38.2542572 C9.49272147 35.34824792 9.46463353 32.44294384 9.43237305 29.53710938 C9.43380814 28.68690216 9.43524323 27.83669495 9.4367218 26.96072388 C9.34858759 21.32374447 8.21586029 17.18832596 6 12 C5.32264783 10.00359361 4.65161065 8.00495586 4 6 C3.34 6 2.68 6 2 6 C1.34 4.02 0.68 2.04 0 0 Z " fill="#DD726A" transform="translate(579,446)"/>
<path d="M0 0 C0.76960527 -0.00170885 1.53921053 -0.0034177 2.33213717 -0.00517833 C4.89474427 -0.00845609 7.45708585 0.00250199 10.01966858 0.01345825 C11.86304213 0.01402274 13.70641614 0.01370508 15.54978943 0.01257324 C20.54305689 0.01200019 25.53622797 0.02374694 30.52947307 0.03772116 C35.75183163 0.05023631 40.97419248 0.05139964 46.19656372 0.05377197 C56.08094835 0.05998443 65.96528866 0.0763921 75.84965378 0.09647095 C87.10473482 0.11883723 98.35981799 0.12982522 109.61491573 0.13986182 C132.76296012 0.16075851 155.91096518 0.19592995 179.05897522 0.24050903 C179.05897522 0.57050903 179.05897522 0.90050903 179.05897522 1.24050903 C177.64402409 1.24132618 177.64402409 1.24132618 176.20048809 1.24215984 C153.2221909 1.25657077 130.2440828 1.29965168 107.26589489 1.3725996 C96.15368656 1.40721694 85.04160186 1.43260086 73.92933655 1.43606567 C64.24113767 1.43911009 54.55315917 1.45966481 44.86504537 1.5010336 C39.73769129 1.52232185 34.61065019 1.53498564 29.48325157 1.52666283 C24.65106044 1.51909632 19.81950209 1.53505092 14.98742676 1.56856918 C13.21986569 1.57677118 11.45224132 1.57658952 9.68468666 1.56710625 C0.81686824 1.52426252 -6.7975643 1.66930575 -14.78509045 6.07228565 C-16.85527756 7.1940457 -18.64338737 7.78091243 -20.94102478 8.24050903 C-20.94102478 7.58050903 -20.94102478 6.92050903 -20.94102478 6.24050903 C-18.96102478 5.58050903 -16.98102478 4.92050903 -14.94102478 4.24050903 C-14.94102478 3.58050903 -14.94102478 2.92050903 -14.94102478 2.24050903 C-9.86960417 0.57748965 -5.349416 -0.04406566 0 0 Z " fill="#ECCDC6" transform="translate(140.94102478027344,431.7594909667969)"/>
<path d="M0 0 C0.66 0 1.32 0 2 0 C2 4.29 2 8.58 2 13 C0.02 13.99 0.02 13.99 -2 15 C-2.70125 14.54625 -3.4025 14.0925 -4.125 13.625 C-8.36877478 11.22634469 -12.22960646 11.32170967 -17 12 C-21.40662739 13.62744762 -24.98938299 16.41041818 -28 20 C-28.33 20.99 -28.66 21.98 -29 23 C-29.66 23 -30.32 23 -31 23 C-30.48758893 29.02900687 -29.930215 35.02004643 -29 41 C-28.34 41 -27.68 41 -27 41 C-26.1028125 41.9590625 -26.1028125 41.9590625 -25.1875 42.9375 C-20.91084488 46.96977483 -15.27347571 46.12739516 -9.6875 46.0625 C-8.94693359 46.05798828 -8.20636719 46.05347656 -7.44335938 46.04882812 C-5.62887101 46.03712175 -3.81442466 46.01918898 -2 46 C-3 48 -3 48 -6 49.125 C-12.96704655 50.89169483 -18.94543686 50.79556175 -25.27734375 47.1953125 C-30.18140423 43.79249502 -31.85533884 39.72330581 -33 34 C-33.81688164 27.24216098 -32.64069798 21.7869119 -29 16 C-24.82124358 11.17564918 -19.93916368 9.27727959 -13.6875 8.6875 C-9.05489315 9.0800938 -5.35798998 10.39089601 -1 12 C-0.67 8.04 -0.34 4.08 0 0 Z " fill="#E2726B" transform="translate(170,486)"/>
<path d="M0 0 C0.33 0 0.66 0 1 0 C0.99777939 0.92167465 0.99555878 1.8433493 0.99327087 2.79295349 C0.97299678 11.60013467 0.95789049 20.4073077 0.94818783 29.2145071 C0.9430315 33.73928788 0.93607079 38.26404893 0.92456055 42.78881836 C0.87474377 62.88377695 0.89617684 82.92770564 2 103 C-2.04516374 96.93225439 -2.29884158 89.71951064 -2.25878906 82.59375 C-2.2622937 81.80709961 -2.26579834 81.02044922 -2.26940918 80.20996094 C-2.27812748 77.63988104 -2.27241271 75.07008212 -2.265625 72.5 C-2.2669745 70.69596301 -2.2689174 68.89192638 -2.27142334 67.08789062 C-2.2743612 63.31897497 -2.27012019 59.55015453 -2.26074219 55.78125 C-2.24934849 50.96985289 -2.25591515 46.15867898 -2.26788712 41.34729004 C-2.27514195 37.62563418 -2.27280119 33.90403054 -2.26763153 30.18237305 C-2.26630504 28.40909803 -2.26790735 26.63581815 -2.27259064 24.86254883 C-2.27771579 22.3769896 -2.26986246 19.8917832 -2.25878906 17.40625 C-2.26283752 16.68598633 -2.26688599 15.96572266 -2.27105713 15.22363281 C-2.22789936 9.94851995 -1.30674215 5.10376811 0 0 Z " fill="#E2726B" transform="translate(104,462)"/>
<path d="M0 0 C0.33 0 0.66 0 1 0 C1.33773438 1.24136719 1.67546875 2.48273438 2.0234375 3.76171875 C2.4738061 5.4036876 2.92433539 7.04561237 3.375 8.6875 C3.59671875 9.50412109 3.8184375 10.32074219 4.046875 11.16210938 C4.9613868 14.48393902 5.87723582 17.69473738 7.1640625 20.89453125 C8 23 8 23 8 26 C3.05 26 -1.9 26 -7 26 C-5.23413932 17.1706966 -2.59122832 8.61435063 0 0 Z " fill="#F3685E" transform="translate(442,496)"/>
<path d="M0 0 C0.66 0 1.32 0 2 0 C3.00906461 3.24725579 4.00565122 6.49821074 5 9.75 C5.28617188 10.67039062 5.57234375 11.59078125 5.8671875 12.5390625 C6.13789062 13.42851562 6.40859375 14.31796875 6.6875 15.234375 C6.93886719 16.05131836 7.19023438 16.86826172 7.44921875 17.70996094 C8 20 8 20 8 24 C3.05 24 -1.9 24 -7 24 C-4.85015386 15.93807699 -2.49368152 7.96205928 0 0 Z " fill="#F66757" transform="translate(540,498)"/>
<path d="M0 0 C2.375 0.1875 2.375 0.1875 5 1 C6.3125 3.5625 6.3125 3.5625 7 6 C7.66 6 8.32 6 9 6 C9.9702321 7.65976812 10.92555673 9.328253 11.875 11 C12.40867187 11.928125 12.94234375 12.85625 13.4921875 13.8125 C16.69513201 20.58349151 17.29145004 26.89842094 17.22705078 34.26171875 C17.22734283 35.15046188 17.22763489 36.03920502 17.22793579 36.95487976 C17.22655258 39.86585567 17.21103925 42.77656931 17.1953125 45.6875 C17.19157878 47.71630717 17.1887335 49.74511616 17.18673706 51.77392578 C17.17912889 57.09382167 17.15950473 62.41360702 17.1373291 67.73345947 C17.11680984 73.16994736 17.10772237 78.60645324 17.09765625 84.04296875 C17.07625607 94.69536086 17.04215432 105.34767121 17 116 C16.01 116.495 16.01 116.495 15 117 C15.01110306 115.93305908 15.02220612 114.86611816 15.03364563 113.7668457 C15.13558353 103.64721799 15.21023259 93.52769621 15.25906086 83.40766907 C15.28500911 78.2064553 15.32013298 73.00566033 15.37719727 67.8046875 C15.43204931 62.77310142 15.46153119 57.7419148 15.47438622 52.71005249 C15.48353163 50.80294518 15.50138661 48.89585647 15.52865028 46.98892212 C15.74977234 30.86202876 14.39930274 16.42578023 3 4 C1.98672468 2.6767272 0.98276355 1.34608825 0 0 Z " fill="#F1DAD3" transform="translate(576,442)"/>
<path d="M0 0 C15.84 0 31.68 0 48 0 C48 3.63 48 7.26 48 11 C44.7 11 41.4 11 38 11 C38 10.67 38 10.34 38 10 C40.97 10 43.94 10 47 10 C47 7.36 47 4.72 47 2 C32.15 2.33 17.3 2.66 2 3 C2 5.64 2 8.28 2 11 C6.95 11 11.9 11 17 11 C17 11.33 17 11.66 17 12 C11.39 12 5.78 12 0 12 C0 8.04 0 4.08 0 0 Z " fill="#FDDDD7" transform="translate(307,484)"/>
<path d="M0 0 C1.33998047 0.06960938 1.33998047 0.06960938 2.70703125 0.140625 C3.60808594 0.17671875 4.50914062 0.2128125 5.4375 0.25 C6.12457031 0.29640625 6.81164062 0.3428125 7.51953125 0.390625 C5.17521486 5.7702142 1.16307866 9.88036809 -3.48046875 13.390625 C-6.53946105 14.14151438 -8.31663257 13.90834365 -11.48046875 13.390625 C-10.54445629 11.97297506 -9.60658955 10.55654932 -8.66796875 9.140625 C-8.14589844 8.35171875 -7.62382813 7.5628125 -7.0859375 6.75 C-6.29123047 5.58210938 -6.29123047 5.58210938 -5.48046875 4.390625 C-4.79984375 3.26140625 -4.79984375 3.26140625 -4.10546875 2.109375 C-2.48046875 0.390625 -2.48046875 0.390625 0 0 Z " fill="#1C1816" transform="translate(717.48046875,466.609375)"/>
<path d="M0 0 C1.46373047 0.74056641 1.46373047 0.74056641 2.95703125 1.49609375 C4.24213405 2.14333531 5.52729325 2.79046488 6.8125 3.4375 C7.77639648 3.92573242 7.77639648 3.92573242 8.75976562 4.42382812 C11.48265466 5.79232676 14.10449794 7.03483265 17 8 C17 8.66 17 9.32 17 10 C36.14 10 55.28 10 75 10 C75 10.33 75 10.66 75 11 C67.64572615 11.2482779 60.29116749 11.46718161 52.93496323 11.65021229 C49.51788538 11.73612217 46.10166527 11.83154331 42.68554688 11.94995117 C38.74408986 12.08612597 34.80214635 12.17868679 30.859375 12.26953125 C29.65263123 12.31721146 28.44588745 12.36489166 27.20257568 12.41401672 C16.88327549 12.59543341 7.70939547 10.19916523 0 3 C0 2.01 0 1.02 0 0 Z " fill="#DBBBBA" transform="translate(117,581)"/>
<path d="M0 0 C5.20754717 6.50943396 5.20754717 6.50943396 7 10 C6.67 10.66 6.34 11.32 6 12 C5.67 11.01 5.34 10.02 5 9 C4.01 9 3.02 9 2 9 C2.00785522 10.58252563 2.00785522 10.58252563 2.01586914 12.19702148 C2.03391901 16.0975663 2.04543195 19.9981074 2.05493164 23.89868164 C2.0599719 25.58944316 2.06680405 27.28020029 2.07543945 28.97094727 C2.08751857 31.39600707 2.09323123 33.82100944 2.09765625 36.24609375 C2.10281754 37.00651474 2.10797882 37.76693573 2.11329651 38.55039978 C2.11349238 40.3673257 2.06197277 42.18413127 2 44 C1 45 1 45 -2.37890625 45.09765625 C-3.77347077 45.09098369 -5.16801743 45.07902532 -6.5625 45.0625 C-7.62887695 45.05573242 -7.62887695 45.05573242 -8.71679688 45.04882812 C-10.47790013 45.03700864 -12.23896036 45.01907263 -14 45 C-14 44.34 -14 43.68 -14 43 C-9.38 43 -4.76 43 0 43 C0 28.81 0 14.62 0 0 Z " fill="#DD6961" transform="translate(258,504)"/>
<path d="M0 0 C0.66 0 1.32 0 2 0 C2 13.86 2 27.72 2 42 C-0.85717723 39.14282277 -2.71872929 37.17268022 -4.75 33.875 C-5.17796875 33.19179688 -5.6059375 32.50859375 -6.046875 31.8046875 C-7 30 -7 30 -7 28 C-4 29 -4 29 -2 32 C-2 32.99 -2 33.98 -2 35 C-1.34 35 -0.68 35 0 35 C0 23.45 0 11.9 0 0 Z " fill="#DC7E75" transform="translate(285,484)"/>
<path d="M0 0 C0.99 0 1.98 0 3 0 C3 5.28 3 10.56 3 16 C-1.81223705 17.60407902 -4.08072253 18.24644384 -8.8359375 18.1953125 C-10.43115234 18.18564453 -10.43115234 18.18564453 -12.05859375 18.17578125 C-13.15300781 18.15902344 -14.24742187 18.14226563 -15.375 18.125 C-16.49261719 18.11597656 -17.61023438 18.10695313 -18.76171875 18.09765625 C-21.50803462 18.07418346 -24.25390472 18.04134728 -27 18 C-27 17.34 -27 16.68 -27 16 C-27.70125 15.9175 -28.4025 15.835 -29.125 15.75 C-34.93498675 14.23435128 -38.55153083 10.77480347 -42 6 C-41.67 5.34 -41.34 4.68 -41 4 C-40.071875 5.3303125 -40.071875 5.3303125 -39.125 6.6875 C-35.04483242 11.63528942 -28.96512145 14.01162618 -23 16 C-20.42411785 16.12320682 -17.88830241 16.18985233 -15.3125 16.1875 C-14.59513672 16.18814453 -13.87777344 16.18878906 -13.13867188 16.18945312 C-8.08502198 16.13896253 -3.77652664 15.59217555 1 14 C0.67 9.38 0.34 4.76 0 0 Z " fill="#DC7067" transform="translate(169,531)"/>
<path d="M0 0 C0.92619141 0.54140625 0.92619141 0.54140625 1.87109375 1.09375 C8.92867925 4.96092014 13.93346025 6.25064656 21.78515625 4.3125 C24.20902628 3.60340722 26.60752735 2.80872315 29 2 C29 6.29 29 10.58 29 15 C21.19436658 18.90281671 13.51207047 18.27891493 5 18 C5 17.67 5 17.34 5 17 C9.62 17 14.24 17 19 17 C19 16.34 19 15.68 19 15 C21.64 14.67 24.28 14.34 27 14 C27 11.69 27 9.38 27 7 C25.78183594 7.03480469 24.56367188 7.06960938 23.30859375 7.10546875 C21.68490972 7.13362512 20.06121065 7.16092329 18.4375 7.1875 C17.23770508 7.22520508 17.23770508 7.22520508 16.01367188 7.26367188 C10.57105223 7.3303162 6.76071706 6.7265368 2 4 C0.5625 1.8125 0.5625 1.8125 0 0 Z " fill="#FDE6E2" transform="translate(141,530)"/>
<path d="M0 0 C1.485 0.495 1.485 0.495 3 1 C-2.31628799 9.81878361 -10.10225603 20.93154325 -20.625 23.6875 C-21.40875 23.790625 -22.1925 23.89375 -23 24 C-24.0209375 24.3403125 -24.0209375 24.3403125 -25.0625 24.6875 C-27.61354246 25.09895846 -28.77608758 24.20673834 -31 23 C-30.09378906 22.72027344 -29.18757812 22.44054687 -28.25390625 22.15234375 C-16.65667395 18.33568846 -8.87097867 13.3627875 -2 3 C-1.34 2.01 -0.68 1.02 0 0 Z " fill="#F6D4CA" transform="translate(587,567)"/>
<path d="M0 0 C0.66 0 1.32 0 2 0 C3.00906461 3.24725579 4.00565122 6.49821074 5 9.75 C5.28617188 10.67039062 5.57234375 11.59078125 5.8671875 12.5390625 C6.13789062 13.42851562 6.40859375 14.31796875 6.6875 15.234375 C6.93886719 16.05131836 7.19023438 16.86826172 7.44921875 17.70996094 C8 20 8 20 8 24 C3.05 24 -1.9 24 -7 24 C-4.85015386 15.93807699 -2.49368152 7.96205928 0 0 Z M-1 8 C-1.79941308 10.52369457 -2.4936108 12.99718906 -3.125 15.5625 C-3.30675781 16.27341797 -3.48851562 16.98433594 -3.67578125 17.71679688 C-4.12444465 19.47602969 -4.56315957 21.23779417 -5 23 C-1.7 23 1.6 23 5 23 C5.37851209 17.06997733 4.10575375 12.52760359 2 7 C0.7763932 6.9254644 0.7763932 6.9254644 -1 8 Z " fill="#D8746A" transform="translate(540,498)"/>
<path d="M0 0 C3.12498063 -0.02895976 6.2499269 -0.04678483 9.375 -0.0625 C10.70917969 -0.07506836 10.70917969 -0.07506836 12.0703125 -0.08789062 C13.34648437 -0.09272461 13.34648437 -0.09272461 14.6484375 -0.09765625 C15.43395996 -0.10289307 16.21948242 -0.10812988 17.02880859 -0.11352539 C19 0 19 0 21 1 C21.74708624 3.01363089 22.39880924 5.06310357 23 7.125 C23.34933594 8.30320312 23.69867188 9.48140625 24.05859375 10.6953125 C24.75088898 13.12552728 25.41658563 15.55746668 26.0625 18 C26.86773426 21.00915968 26.86773426 21.00915968 28.5 23.4375 C31.353235 28.31177646 32.37265866 32.50936535 31 38 C26.71 26.12 22.42 14.24 18 2 C12.39 2 6.78 2 1 2 C0.01 3.485 0.01 3.485 -1 5 C-0.67 3.35 -0.34 1.7 0 0 Z " fill="#DF6B64" transform="translate(433,483)"/>
<path d="M0 0 C0.66 0 1.32 0 2 0 C2.34933594 0.91523437 2.69867187 1.83046875 3.05859375 2.7734375 C3.74115234 4.55621094 3.74115234 4.55621094 4.4375 6.375 C5.11619141 8.15003906 5.11619141 8.15003906 5.80859375 9.9609375 C6.89271912 12.86036193 6.89271912 12.86036193 8 15 C8.125 18.0625 8.125 18.0625 8 21 C5.95024022 23.04975978 1.92897437 22.27592642 -0.875 22.3125 C-1.60847656 22.34150391 -2.34195313 22.37050781 -3.09765625 22.40039062 C-8.46111345 22.4638924 -8.46111345 22.4638924 -10.96484375 20.30859375 C-12.13698877 17.69448918 -12.49968047 15.60485693 -12.6875 12.75 C-12.75324219 11.85796875 -12.81898438 10.9659375 -12.88671875 10.046875 C-12.92410156 9.37140625 -12.96148438 8.6959375 -13 8 C-10.37104854 11.94342719 -9.94072002 15.36359419 -9 20 C-3.72 20 1.56 20 7 20 C6.4946875 18.72382812 5.989375 17.44765625 5.46875 16.1328125 C4.81232261 14.46361142 4.15608228 12.79433676 3.5 11.125 C3.16613281 10.28324219 2.83226562 9.44148437 2.48828125 8.57421875 C2.01455078 7.36572266 2.01455078 7.36572266 1.53125 6.1328125 C1.23798828 5.38918457 0.94472656 4.64555664 0.64257812 3.87939453 C0 2 0 2 0 0 Z " fill="#E4685D" transform="translate(565,527)"/>
<path d="M0 0 C1.35762828 0.00373569 2.71525928 0.00658003 4.07289124 0.00857544 C7.62553507 0.01616819 11.17801228 0.03577853 14.73059082 0.0579834 C18.36399075 0.07853637 21.99741792 0.08759726 25.63085938 0.09765625 C32.74485934 0.11902911 39.85874685 0.15311163 46.97265625 0.1953125 C46.97265625 0.5253125 46.97265625 0.8553125 46.97265625 1.1953125 C46.25792648 1.19673752 45.54319672 1.19816254 44.80680847 1.19963074 C38.02581059 1.21756196 31.24532464 1.25947235 24.46465588 1.32740307 C20.97968867 1.36149531 17.49515152 1.38675494 14.01000977 1.39086914 C9.99053302 1.39602063 5.97233239 1.44131404 1.953125 1.48828125 C0.71934616 1.4843486 -0.51443268 1.48041595 -1.78559875 1.47636414 C-8.99953595 1.59641229 -14.31116272 2.65793626 -20.7219696 6.02876282 C-22.84558642 7.10334089 -24.70520874 7.72601127 -27.02734375 8.1953125 C-27.02734375 7.5353125 -27.02734375 6.8753125 -27.02734375 6.1953125 C-25.04734375 5.5353125 -23.06734375 4.8753125 -21.02734375 4.1953125 C-21.02734375 3.5353125 -21.02734375 2.8753125 -21.02734375 2.1953125 C-14.12583341 -0.40343211 -7.29665245 -0.05802023 0 0 Z " fill="#E4C5BE" transform="translate(147.02734375,431.8046875)"/>
<path d="M0 0 C1.8871875 0.0309375 1.8871875 0.0309375 3.8125 0.0625 C4.1425 0.7225 4.4725 1.3825 4.8125 2.0625 C4.05324219 2.09988281 3.29398438 2.13726562 2.51171875 2.17578125 C1.51785156 2.24152344 0.52398437 2.30726563 -0.5 2.375 C-1.48613281 2.43300781 -2.47226563 2.49101562 -3.48828125 2.55078125 C-7.51541675 3.31424688 -8.47670475 5.10014064 -10.83203125 8.2890625 C-12.53420459 11.77189557 -12.69866721 14.57385266 -12.875 18.4375 C-12.94074219 19.70335937 -13.00648438 20.96921875 -13.07421875 22.2734375 C-13.18182567 25.87270355 -13.21075973 29.46189454 -13.1875 33.0625 C-17.08413138 27.21755294 -16.67328681 20.90849562 -16.1875 14.0625 C-14.95152651 8.35397837 -11.45525862 4.7967888 -7.1875 1.0625 C-4.43671116 0.14557039 -2.82801087 -0.04636083 0 0 Z " fill="#E1756D" transform="translate(206.1875,494.9375)"/>
<path d="M0 0 C0.66 0.66 1.32 1.32 2 2 C1.29875 1.96519531 0.5975 1.93039062 -0.125 1.89453125 C-6.8896267 1.7015188 -13.18300464 1.699078 -18.53125 6.32421875 C-23.17494311 11.46737885 -24.39537336 16.82757631 -24.26953125 23.54296875 C-23.79509875 27.86786796 -22.43498083 31.90859633 -21 36 C-22.9375 35.25 -22.9375 35.25 -25 34 C-26.49088928 30.59449501 -26.13287167 26.7853254 -26.125 23.125 C-26.12886719 21.33449219 -26.12886719 21.33449219 -26.1328125 19.5078125 C-26.00933396 16.24652649 -25.61663257 13.20061666 -25 10 C-24.34 10 -23.68 10 -23 10 C-23 9.01 -23 8.02 -23 7 C-22.34 7 -21.68 7 -21 7 C-21 6.01 -21 5.02 -21 4 C-19.35 3.67 -17.7 3.34 -16 3 C-16 2.34 -16 1.68 -16 1 C-10.76145282 -0.10285204 -5.33657932 -0.56629169 0 0 Z " fill="#FEE2DF" transform="translate(162,494)"/>
<path d="M0 0 C1.0772656 3.23179679 1.25643258 3.94866374 0 7 C-6.07496314 13.9954121 -14.0393462 20.51833101 -23.48046875 21.28125 C-30.564132 21.45455063 -30.564132 21.45455063 -34 21 C-34.66 20.01 -35.32 19.02 -36 18 C-35.154375 18.02320313 -34.30875 18.04640625 -33.4375 18.0703125 C-22.75812056 18.24021172 -14.22604473 17.4837313 -6 10 C-3.68306977 6.81243686 -1.77207507 3.51635289 0 0 Z " fill="#E06D67" transform="translate(233,529)"/>
<path d="M0 0 C0.66 0 1.32 0 2 0 C1.71125 0.70125 1.4225 1.4025 1.125 2.125 C0.75375 3.07375 0.3825 4.0225 0 5 C-0.34675781 5.86882812 -0.69351563 6.73765625 -1.05078125 7.6328125 C-2.21491762 11.76238266 -2.34114914 15.48217353 -2.3125 19.75 C-2.31121094 20.5426123 -2.30992188 21.33522461 -2.30859375 22.15185547 C-2.21072057 28.13313001 -1.34243687 33.45065551 1 39 C-3.56510723 35.13721696 -4.45256269 32.87141551 -5 27 C-5.84859474 10.69718948 -5.84859474 10.69718948 -2 3 C-1.34 3 -0.68 3 0 3 C0 2.01 0 1.02 0 0 Z " fill="#E07F75" transform="translate(126,496)"/>
<path d="M0 0 C9 -0.48 9 -0.48 13.125 1.5 C15.41676344 4.55568459 15.60700227 6.35827945 15.36328125 10.09765625 C14.86048824 12.73056157 13.95982195 14.18535005 12 16 C9.11788698 16.96070434 7.30149956 17.10581883 4.3125 17.0625 C2.1778125 17.0315625 2.1778125 17.0315625 0 17 C0 11.39 0 5.78 0 0 Z M1 1 C1 5.95 1 10.9 1 16 C7.24986359 16.09405455 7.24986359 16.09405455 12 13 C13.82828343 10.50688624 14.05522477 9.46388808 13.6875 6.375 C13.08066352 4.01059813 13.08066352 4.01059813 12 2 C9.24921116 1.08307039 7.64051087 0.89113917 4.8125 0.9375 C3.554375 0.958125 2.29625 0.97875 1 1 Z " fill="#D7675F" transform="translate(377,495)"/>
<path d="M0 0 C1.32 0 2.64 0 4 0 C4.61875 1.2684375 4.61875 1.2684375 5.25 2.5625 C6.50269106 5.02314316 7.78937861 7.37667651 9.1875 9.75 C11 13 11 13 11 15 C13.45224694 14.89386164 13.45224694 14.89386164 16 14 C17.37466625 11.52363988 17.37466625 11.52363988 18 9 C19.23593891 12.70781672 18.5678132 13.67510253 17.0625 17.1875 C16.68222656 18.08855469 16.30195313 18.98960937 15.91015625 19.91796875 C15.60980469 20.60503906 15.30945313 21.29210937 15 22 C12.72707077 19.86314691 11.01905825 17.68155479 9.3359375 15.05859375 C8.61277344 13.93614258 8.61277344 13.93614258 7.875 12.79101562 C7.38 12.01435547 6.885 11.23769531 6.375 10.4375 C5.87226563 9.65697266 5.36953125 8.87644531 4.8515625 8.07226562 C1.16354008 2.32708017 1.16354008 2.32708017 0 0 Z " fill="#E56F68" transform="translate(398,522)"/>
<path d="M0 0 C7.59 0 15.18 0 23 0 C23 0.33 23 0.66 23 1 C13.1 1.495 13.1 1.495 3 2 C1.47193612 5.05612776 0.67248202 6.98720608 0 10.1875 C-0.33 11.445625 -0.66 12.70375 -1 14 C-4.06533164 15.53266582 -7.26754272 15.10276471 -10.625 15.0625 C-11.33140625 15.05798828 -12.0378125 15.05347656 -12.765625 15.04882812 C-14.51045275 15.03703875 -16.255237 15.01910324 -18 15 C-18 14.67 -18 14.34 -18 14 C-13.38 13.67 -8.76 13.34 -4 13 C-2.68 8.71 -1.36 4.42 0 0 Z " fill="#D97972" transform="translate(529,533)"/>
<path d="M0 0 C1.11375 0.1546875 1.11375 0.1546875 2.25 0.3125 C4.67535281 1.26531717 5.50303213 2.91726209 7 5 C7.99 5.33 8.98 5.66 10 6 C12.21051028 9.19133273 12.21560042 11.94478238 12.125 15.75 C12.10695313 16.73484375 12.08890625 17.7196875 12.0703125 18.734375 C12.04710937 19.48203125 12.02390625 20.2296875 12 21 C11.67 21 11.34 21 11 21 C10.91363281 20.26394531 10.82726562 19.52789062 10.73828125 18.76953125 C10.59777344 17.79371094 10.45726562 16.81789063 10.3125 15.8125 C10.18488281 14.84957031 10.05726563 13.88664062 9.92578125 12.89453125 C8.70430383 9.07548159 7.13314212 7.48608016 4 5 C0.46022518 3.56005547 0.46022518 3.56005547 -3.3125 2.6875 C-4.56675781 2.36136719 -5.82101562 2.03523438 -7.11328125 1.69921875 C-8.06589844 1.46847656 -9.01851563 1.23773438 -10 1 C-6.10748944 -1.59500704 -4.4869469 -0.86590203 0 0 Z " fill="#E3746C" transform="translate(396,483)"/>
<path d="M0 0 C0.66 0 1.32 0 2 0 C2.50615298 1.26839526 3.00469099 2.53983102 3.5 3.8125 C3.91765625 4.87404297 3.91765625 4.87404297 4.34375 5.95703125 C5 8 5 8 5 11 C10.445 10.505 10.445 10.505 16 10 C16 7.69 16 5.38 16 3 C18 6 18 6 20 13 C14.72 13 9.44 13 4 13 C2.68 8.71 1.36 4.42 0 0 Z " fill="#FDD9D1" transform="translate(552,534)"/>
<path d="M0 0 C2.04136395 -0.05451714 4.08315856 -0.09302485 6.125 -0.125 C7.83042969 -0.15980469 7.83042969 -0.15980469 9.5703125 -0.1953125 C13.05757767 0.00327891 15.7553862 0.7475199 19 2 C19 2.66 19 3.32 19 4 C19.70125 4.04125 20.4025 4.0825 21.125 4.125 C25.27924027 5.38933399 27.08632715 7.81528782 30 11 C29.67 11.99 29.34 12.98 29 14 C28.01 12.63875 28.01 12.63875 27 11.25 C19.96632328 3.03435557 10.10426927 2.93194717 0 2 C0 1.34 0 0.68 0 0 Z " fill="#E26B65" transform="translate(200,481)"/>
<path d="M0 0 C1.423125 0.33 2.84625 0.66 4.3125 1 C4.3125 5.62 4.3125 10.24 4.3125 15 C2.3325 14.34 0.3525 13.68 -1.6875 13 C-0.3675 12.34 0.9525 11.68 2.3125 11 C2.3125 8.36 2.3125 5.72 2.3125 3 C-0.49497455 2.2204542 -3.10779808 1.8289851 -6.015625 1.68359375 C-7.21445313 1.62075195 -7.21445313 1.62075195 -8.4375 1.55664062 C-9.675 1.49766602 -9.675 1.49766602 -10.9375 1.4375 C-11.77796875 1.39431641 -12.6184375 1.35113281 -13.484375 1.30664062 C-15.55190671 1.20091457 -17.61968281 1.09998705 -19.6875 1 C-13.96410779 -2.81559481 -6.50170511 -1.29663635 0 0 Z " fill="#FDD6D6" transform="translate(165.6875,484)"/>
<path d="M0 0 C2.375 0.1875 2.375 0.1875 5 1 C6.3125 3.5625 6.3125 3.5625 7 6 C7.66 6 8.32 6 9 6 C13.34674122 12.92115045 15.81038091 17.76112738 15 26 C13.50640668 23.14383032 12.34907722 20.27728288 11.25 17.25 C9.23627226 12.13648912 6.45826004 8.22368827 3 4 C1.99478335 2.67059515 0.99338482 1.33826917 0 0 Z " fill="#F5D8CD" transform="translate(576,442)"/>
<path d="M0 0 C1.31468468 3.94405405 0.07374735 6.34742896 -1.30859375 10.07421875 C-1.67695091 11.09996758 -1.67695091 11.09996758 -2.05274963 12.1464386 C-2.83911663 14.32999439 -3.63811199 16.50868169 -4.4375 18.6875 C-4.97284328 20.16701473 -5.50735884 21.64682925 -6.04101562 23.12695312 C-7.35109762 26.75485055 -8.67252393 30.37843293 -10 34 C-10.33 34 -10.66 34 -11 34 C-11.25 28.375 -11.25 28.375 -9 25 C-8.65458149 22.66842508 -8.32205743 20.33491639 -8 18 C-6.9375 15.0625 -6.9375 15.0625 -6 13 C-5.34 13 -4.68 13 -4 13 C-3.67 10.36 -3.34 7.72 -3 5 C-2.34 5 -1.68 5 -1 5 C-0.67 3.35 -0.34 1.7 0 0 Z " fill="#DF6D64" transform="translate(531,484)"/>
<path d="M0 0 C3.58326501 -0.05814085 7.16640838 -0.09364357 10.75 -0.125 C11.76578125 -0.14175781 12.7815625 -0.15851563 13.828125 -0.17578125 C14.8078125 -0.18222656 15.7875 -0.18867188 16.796875 -0.1953125 C17.69760742 -0.20578613 18.59833984 -0.21625977 19.52636719 -0.22705078 C22.13926856 0.01278324 23.75664666 0.67687936 26 2 C23.30317322 3.34841339 21.30008136 2.6610217 18.3984375 2.2734375 C7.70344945 1.05413919 -0.47358155 3.09312089 -10 8 C-9.01958581 5.54896452 -8.3486182 4.23241214 -6.125 2.75 C-4 2 -4 2 0 2 C0 1.34 0 0.68 0 0 Z " fill="#E17169" transform="translate(144,482)"/>
<path d="M0 0 C-1.44126786 3.36295835 -3.20592655 5.62927102 -6 8 C-6.99 8 -7.98 8 -9 8 C-9.4021875 8.8353125 -9.4021875 8.8353125 -9.8125 9.6875 C-13.47826087 16.82608696 -13.47826087 16.82608696 -17 18 C-14.96430746 12.76536203 -13.41301674 9.0530905 -9.0625 5.375 C-8.02802734 4.48941406 -8.02802734 4.48941406 -6.97265625 3.5859375 C-2.51231527 0 -2.51231527 0 0 0 Z " fill="#E37068" transform="translate(124,439)"/>
<path d="M0 0 C2.97337774 2.53611631 4.2368853 5.30582943 5.75 8.875 C6.19859375 9.90367187 6.6471875 10.93234375 7.109375 11.9921875 C8.06038903 15.20394541 8.0173558 16.84619701 7 20 C6 21 6 21 2.62109375 21.09765625 C1.22652923 21.09098369 -0.16801743 21.07902532 -1.5625 21.0625 C-2.27341797 21.05798828 -2.98433594 21.05347656 -3.71679688 21.04882812 C-5.47790013 21.03700864 -7.23896036 21.01907263 -9 21 C-9 20.67 -9 20.34 -9 20 C-4.38 19.67 0.24 19.34 5 19 C3.64746536 12.54945018 1.96939767 6.28894321 0 0 Z " fill="#E56A62" transform="translate(467,528)"/>
<path d="M0 0 C2.15302558 2.15302558 2.93732602 3.86864372 4.1875 6.625 C6.72311054 11.84805404 9.97755339 15.85004068 14 20 C13.01 20.33 12.02 20.66 11 21 C5.28493914 16.1518304 1.96442863 11.28424778 0 4 C0 2.68 0 1.36 0 0 Z " fill="#D7A8A4" transform="translate(103,560)"/>
<path d="M0 0 C4.04003897 2.0746146 6.00506762 3.91038861 8 8 C9.06257568 11.34894541 9.16560776 14.49724088 9.1875 18 C9.20167969 19.03125 9.21585938 20.0625 9.23046875 21.125 C9.00276947 23.96545203 8.46504061 25.59107948 7 28 C6.97421875 26.77023437 6.9484375 25.54046875 6.921875 24.2734375 C6.86556994 22.64059068 6.80822315 21.00777955 6.75 19.375 C6.73582031 18.56675781 6.72164062 17.75851562 6.70703125 16.92578125 C6.48199601 11.38991432 5.58509573 8.27246371 2 4 C1.34 3.67 0.68 3.34 0 3 C0 2.01 0 1.02 0 0 Z " fill="#DF7873" transform="translate(212,497)"/>
<path d="M0 0 C0 0.66 0 1.32 0 2 C-1.57421875 3.515625 -1.57421875 3.515625 -3.6875 5.25 C-6.33101109 7.48250583 -8.67156335 9.65614181 -10.8125 12.375 C-13 15 -13 15 -16 16 C-14.2281799 9.7001952 -9.41427544 4.71681809 -4.1875 1 C-2 0 -2 0 0 0 Z " fill="#FEE6E0" transform="translate(194,486)"/>
<path d="M0 0 C6.27 0 12.54 0 19 0 C21.0694924 4.1389848 22.55638459 7.30118908 23.75 11.625 C24.01296875 12.54539062 24.2759375 13.46578125 24.546875 14.4140625 C25.01337436 17.07632609 24.73162236 18.45419759 24 21 C22.99422987 18.23113877 21.99519853 15.46015896 21 12.6875 C20.57074219 11.50897461 20.57074219 11.50897461 20.1328125 10.30664062 C19.86210938 9.54931641 19.59140625 8.79199219 19.3125 8.01171875 C19.06113281 7.31522217 18.80976562 6.61872559 18.55078125 5.90112305 C18 4 18 4 18 1 C12.06 1 6.12 1 0 1 C0 0.67 0 0.34 0 0 Z " fill="#DD6A62" transform="translate(532,483)"/>
<path d="M0 0 C8.17173984 -0.63183555 15.34538382 -0.30137138 22 5 C22.76953125 7.171875 22.76953125 7.171875 23 9 C22.17757812 8.59007812 21.35515625 8.18015625 20.5078125 7.7578125 C13.71922264 4.48110284 7.49320593 1.98105179 0 1 C0 0.67 0 0.34 0 0 Z " fill="#F6D1C6" transform="translate(553,433)"/>
<path d="M0 0 C0.33 0 0.66 0 1 0 C1.24403837 6.22297833 0.43600559 9.84599161 -3 15 C-3.39387788 17.32387947 -3.73486085 19.65793749 -4 22 C-4.99 22.33 -5.98 22.66 -7 23 C-6.33654156 17.74272175 -4.74419696 13.07140932 -2.9375 8.125 C-2.65583984 7.34125 -2.37417969 6.5575 -2.08398438 5.75 C-1.39386218 3.83169424 -0.69755684 1.91561481 0 0 Z " fill="#FDDED6" transform="translate(524,507)"/>
<path d="M0 0 C7 1 7 1 8.77734375 2.62890625 C9.16019531 3.26699219 9.54304688 3.90507813 9.9375 4.5625 C10.33839844 5.20316406 10.73929687 5.84382812 11.15234375 6.50390625 C11.43207031 6.99761719 11.71179688 7.49132812 12 8 C11.01 8 10.02 8 9 8 C6 4.66666667 6 4.66666667 6 2 C4.35 2 2.7 2 1 2 C1 9.26 1 16.52 1 24 C0.67 24 0.34 24 0 24 C0 16.08 0 8.16 0 0 Z " fill="#D46359" transform="translate(377,523)"/>
<path d="M0 0 C0.99 0.495 0.99 0.495 2 1 C3.39770599 5.19311798 3.22403077 9.17045468 3.25 13.5625 C3.270625 14.43841797 3.29125 15.31433594 3.3125 16.21679688 C3.31765625 17.05404297 3.3228125 17.89128906 3.328125 18.75390625 C3.3374707 19.52033447 3.34681641 20.2867627 3.35644531 21.07641602 C3.23881836 21.71119873 3.12119141 22.34598145 3 23 C2.01 23.66 1.02 24.32 0 25 C0 16.75 0 8.5 0 0 Z " fill="#E17D78" transform="translate(234,504)"/>
<path d="M0 0 C-1.53218685 3.63061667 -3.7183144 5.9863773 -6.5 8.75 C-7.69109375 9.94882812 -7.69109375 9.94882812 -8.90625 11.171875 C-11 13 -11 13 -13 13 C-11.3653947 7.79898315 -6.07346989 0 0 0 Z " fill="#FDE7E1" transform="translate(140,487)"/>
<path d="M0 0 C5.94 0 11.88 0 18 0 C18.66 2.31 19.32 4.62 20 7 C19.34 7 18.68 7 18 7 C17.34 5.68 16.68 4.36 16 3 C10.72 3 5.44 3 0 3 C0 2.01 0 1.02 0 0 Z " fill="#FEDDD5" transform="translate(532,484)"/>
<path d="M0 0 C0.66 0 1.32 0 2 0 C0.96008872 3.01574271 0.03085171 3.97991051 -2.6875 5.75 C-7.18051439 7.44547713 -10.93370639 7.8477102 -15.4375 6 C-15.953125 5.67 -16.46875 5.34 -17 5 C-17 4.67 -17 4.34 -17 4 C-12.38 4 -7.76 4 -3 4 C-3 3.34 -3 2.68 -3 2 C-2.01 2 -1.02 2 0 2 C0 1.34 0 0.68 0 0 Z " fill="#E17A6F" transform="translate(215,529)"/>
<path d="M0 0 C1.32 0.33 2.64 0.66 4 1 C3.38125 1.53625 2.7625 2.0725 2.125 2.625 C-2.30473448 7.57587971 -2.27294593 13.0816076 -2.125 19.375 C-2.11597656 20.11105469 -2.10695312 20.84710937 -2.09765625 21.60546875 C-2.07430144 23.4037888 -2.03843836 25.20193911 -2 27 C-5.05818782 23.94181218 -4.36848434 20.40759408 -4.375 16.3125 C-4.39949219 15.52166016 -4.42398438 14.73082031 -4.44921875 13.91601562 C-4.47794133 8.1188417 -3.25062258 4.79884401 0 0 Z " fill="#FFE9E5" transform="translate(193,498)"/>
<path d="M0 0 C0.93423645 3.01031744 1.04449911 3.86650268 0 7 C3.63 7 7.26 7 11 7 C11 6.34 11 5.68 11 5 C11.66 5 12.32 5 13 5 C12.67 6.32 12.34 7.64 12 9 C7.38 9 2.76 9 -2 9 C-1 3 -1 3 0 0 Z " fill="#FEE0D6" transform="translate(513,538)"/>
<path d="M0 0 C3.12259437 3.12259437 3.14293342 6.71466712 4 11 C-0.95 11 -5.9 11 -11 11 C-11 10.67 -11 10.34 -11 10 C-5.555 9.505 -5.555 9.505 0 9 C0 6.03 0 3.06 0 0 Z " fill="#FCDBD4" transform="translate(469,536)"/>
<path d="M0 0 C0.33 0 0.66 0 1 0 C1 6.27 1 12.54 1 19 C0.67 19 0.34 19 0 19 C-0.33 16.69 -0.66 14.38 -1 12 C-1.66 13.32 -2.32 14.64 -3 16 C-4.31225809 12.06322574 -3.3393954 10.2205738 -2.0625 6.3125 C-1.68222656 5.13300781 -1.30195312 3.95351563 -0.91015625 2.73828125 C-0.60980469 1.83464844 -0.30945313 0.93101562 0 0 Z " fill="#E4E2E1" transform="translate(664,496)"/>
<path d="M0 0 C1.2475059 3.7425177 0.54732546 5.01644499 -0.75 8.6875 C-1.12125 9.74839844 -1.4925 10.80929687 -1.875 11.90234375 C-3.222665 15.61310191 -4.58276742 19.3151953 -6 23 C-7.14709734 19.62071324 -6.84353618 17.61637607 -5.75 14.25 C-5.46898437 13.37988281 -5.18796875 12.50976562 -4.8984375 11.61328125 C-1.38041002 1.38041002 -1.38041002 1.38041002 0 0 Z " fill="#DD6F65" transform="translate(519,518)"/>
<path d="M0 0 C-5.704951 2.48943316 -10.73645942 3.9512675 -17 3 C-17.99 2.34 -18.98 1.68 -20 1 C-17.41765641 0.63667026 -14.83460218 0.28405133 -12.25 -0.0625 C-11.52039063 -0.16626953 -10.79078125 -0.27003906 -10.0390625 -0.37695312 C-6.3892704 -0.85806208 -3.52327086 -1.04532842 0 0 Z " fill="#E17A73" transform="translate(168,533)"/>
<path d="M0 0 C-0.515625 0.37125 -1.03125 0.7425 -1.5625 1.125 C-3.62427298 2.71097921 -5.63301779 4.32823205 -7.625 6 C-8.51058594 6.7425 -8.51058594 6.7425 -9.4140625 7.5 C-11.23476995 9.11020666 -11.23476995 9.11020666 -13 12 C-13.4375 9.375 -13.4375 9.375 -13 6 C-9.44812794 1.42889508 -5.91790977 -0.86603558 0 0 Z " fill="#E2635F" transform="translate(153,497)"/>
<path d="M0 0 C-5.10871021 3.70381491 -10.53394741 7 -17 7 C-17 6.34 -17 5.68 -17 5 C-16.39671875 4.73445312 -15.7934375 4.46890625 -15.171875 4.1953125 C-14.37265625 3.84210937 -13.5734375 3.48890625 -12.75 3.125 C-11.96109375 2.77695312 -11.1721875 2.42890625 -10.359375 2.0703125 C-8.83104072 1.37699529 -7.32276746 0.63684632 -5.84375 -0.15625 C-3.50900437 -1.22469292 -2.36809715 -0.84574898 0 0 Z " fill="#E77168" transform="translate(574,583)"/>
<path d="M0 0 C0.99 0 1.98 0 3 0 C3.02684679 2.64590014 3.04676357 5.29153096 3.0625 7.9375 C3.07087891 8.69224609 3.07925781 9.44699219 3.08789062 10.22460938 C3.09652441 12.14994313 3.05224333 14.07535581 3 16 C2 17 2 17 -0.5625 17.0625 C-1.366875 17.041875 -2.17125 17.02125 -3 17 C-2.01 16.34 -1.02 15.68 0 15 C0.22137393 12.37302936 0.28162025 9.99106036 0.1875 7.375 C0.17396484 6.66859375 0.16042969 5.9621875 0.14648438 5.234375 C0.1111104 3.48925872 0.05730221 1.74453392 0 0 Z " fill="#EB716B" transform="translate(169,531)"/>
<path d="M0 0 C4 8 4 8 4 12 C-0.95 12 -5.9 12 -11 12 C-11 11.01 -11 10.02 -11 9 C-10.34 9 -9.68 9 -9 9 C-9 9.66 -9 10.32 -9 11 C-5.7 11 -2.4 11 1 11 C0.67 7.37 0.34 3.74 0 0 Z " fill="#D6776E" transform="translate(446,510)"/>
<path d="M0 0 C5.61 0 11.22 0 17 0 C17.66 1.98 18.32 3.96 19 6 C18.34 6 17.68 6 17 6 C16.67 4.68 16.34 3.36 16 2 C15.26394531 2.01160156 14.52789062 2.02320313 13.76953125 2.03515625 C12.79371094 2.04417969 11.81789063 2.05320312 10.8125 2.0625 C9.36810547 2.07990234 9.36810547 2.07990234 7.89453125 2.09765625 C5.14423487 2.00486622 2.67520409 1.62111685 0 1 C0 0.67 0 0.34 0 0 Z " fill="#FED8D2" transform="translate(434,484)"/>
<path d="M0 0 C2.27208206 1.1225346 4.54267645 2.24791521 6.8125 3.375 C7.45509766 3.69210937 8.09769531 4.00921875 8.75976562 4.3359375 C11.63194461 5.76458611 14.3267821 7.21785473 17 9 C9.80792811 8.84081933 5.38782009 7.91931399 0 3 C0 2.01 0 1.02 0 0 Z " fill="#D8AFAC" transform="translate(117,581)"/>
<path d="M0 0 C3.36016893 1.12005631 4.69064913 2.37211797 7 5 C7 5.66 7 6.32 7 7 C7.66 7 8.32 7 9 7 C9.99 8.485 9.99 8.485 11 10 C13.55183404 11.20450304 13.55183404 11.20450304 16 12 C16 12.66 16 13.32 16 14 C11.25229751 12.72890744 8.58932534 11.09182135 5.1875 7.5625 C4.41792969 6.78003906 3.64835937 5.99757813 2.85546875 5.19140625 C1 3 1 3 0 0 Z " fill="#E67166" transform="translate(110,572)"/>
<path d="M0 0 C2.62895146 3.94342719 3.05927998 7.36359419 4 12 C8.95 12 13.9 12 19 12 C19 12.33 19 12.66 19 13 C16.37438891 13.08074203 13.75124324 13.1403623 11.125 13.1875 C10.00544922 13.22520508 10.00544922 13.22520508 8.86328125 13.26367188 C6.6953125 13.29296875 6.6953125 13.29296875 3 13 C0.89172945 9.83759418 0.66182535 8.49342531 0.375 4.8125 C0.30023437 3.91144531 0.22546875 3.01039063 0.1484375 2.08203125 C0.09945312 1.39496094 0.05046875 0.70789063 0 0 Z " fill="#D9766D" transform="translate(552,535)"/>
<path d="M0 0 C0.33 0 0.66 0 1 0 C1.10957031 0.96679688 1.21914062 1.93359375 1.33203125 2.9296875 C2.2616852 10.56343135 3.4275188 17.71130326 6 25 C3.02723128 22.48458031 1.21907922 20.80890788 0.1875 17 C-0.26461727 11.36109289 -0.0764879 5.65160578 0 0 Z " fill="#DD7169" transform="translate(121,510)"/>
<path d="M0 0 C1.14849559 3.96753021 0.87071371 6.93666935 0 11 C-1.5 13.1875 -1.5 13.1875 -3 15 C-3.70514846 17.14733927 -3.70514846 17.14733927 -4 19 C-4.66 19 -5.32 19 -6 19 C-4.3186083 12.51292846 -2.46937673 6.2322365 0 0 Z " fill="#FCDDD4" transform="translate(531,487)"/>
<path d="M0 0 C-2.86338843 2.31987488 -5.56787067 3.79609627 -9 5.125 C-9.845625 5.45757812 -10.69125 5.79015625 -11.5625 6.1328125 C-13.6984628 6.89272234 -15.79118062 7.49892523 -18 8 C-18 7.34 -18 6.68 -18 6 C-16.02 5.34 -14.04 4.68 -12 4 C-12 3.34 -12 2.68 -12 2 C-7.8803623 0.70756464 -4.33168317 -0.26252625 0 0 Z " fill="#DCB7B2" transform="translate(138,432)"/>
<path d="M0 0 C0.66 0 1.32 0 2 0 C0.25267359 6.26480445 -1.97120279 10.88233868 -6 16 C-6.33 14.68 -6.66 13.36 -7 12 C-6.34 11.67 -5.68 11.34 -5 11 C-4.27306096 9.02111039 -3.60183749 7.02045442 -3 5 C-2.34 5 -1.68 5 -1 5 C-0.67 3.35 -0.34 1.7 0 0 Z " fill="#E07467" transform="translate(587,561)"/>
<path d="M0 0 C1.3274855 3.98245651 -0.00092171 6.44789543 -1.4375 10.1875 C-1.80198242 11.16879883 -1.80198242 11.16879883 -2.17382812 12.16992188 C-2.7743293 13.78303286 -3.38609203 15.3919435 -4 17 C-4.33 17 -4.66 17 -5 17 C-4.85866501 15.22880197 -4.71176792 13.45804713 -4.5625 11.6875 C-4.48128906 10.70136719 -4.40007812 9.71523438 -4.31640625 8.69921875 C-4 6 -4 6 -3 3 C-2.34 3 -1.68 3 -1 3 C-0.67 2.01 -0.34 1.02 0 0 Z " fill="#DF6864" transform="translate(422,514)"/>
<path d="M0 0 C1.23593891 3.70781672 0.5678132 4.67510253 -0.9375 8.1875 C-1.31777344 9.08855469 -1.69804687 9.98960937 -2.08984375 10.91796875 C-2.39019531 11.60503906 -2.69054687 12.29210937 -3 13 C-5.42999536 10.72635823 -6.42805835 9.31726155 -7 6 C-6.21625 5.938125 -5.4325 5.87625 -4.625 5.8125 C-3.75875 5.544375 -2.8925 5.27625 -2 5 C-0.62533375 2.52363988 -0.62533375 2.52363988 0 0 Z " fill="#DB6860" transform="translate(416,531)"/>
<path d="M0 0 C0.99 0.33 1.98 0.66 3 1 C3.33 1.99 3.66 2.98 4 4 C4.66 4.33 5.32 4.66 6 5 C6 5.99 6 6.98 6 8 C6.66 8 7.32 8 8 8 C8.33 9.98 8.66 11.96 9 14 C5.15237434 10.5798883 2.39365978 6.53225744 0 2 C0 1.34 0 0.68 0 0 Z " fill="#E36E66" transform="translate(263,488)"/>
<path d="M0 0 C1.58294782 -0.05437607 3.16644256 -0.09296271 4.75 -0.125 C5.63171875 -0.14820313 6.5134375 -0.17140625 7.421875 -0.1953125 C10.1135858 0.00860498 11.69904974 0.63448279 14 2 C13.67 2.99 13.34 3.98 13 5 C12.01 4.34 11.02 3.68 10 3 C7.49103314 2.54398739 7.49103314 2.54398739 4.8125 2.375 C3.91144531 2.30023438 3.01039063 2.22546875 2.08203125 2.1484375 C1.39496094 2.09945313 0.70789063 2.05046875 0 2 C0 1.34 0 0.68 0 0 Z " fill="#FAD4CF" transform="translate(377,493)"/>
<path d="M0 0 C4.00972202 3.67557852 6.45335415 7.18966896 9 12 C8.01 12 7.02 12 6 12 C5.34 10.02 4.68 8.04 4 6 C3.34 6 2.68 6 2 6 C1.34 4.02 0.68 2.04 0 0 Z " fill="#E07C70" transform="translate(579,446)"/>
<path d="M0 0 C2.72675159 2.40689803 4.11966596 4.92471023 5.6875 8.1875 C6.12449219 9.08855469 6.56148438 9.98960937 7.01171875 10.91796875 C7.33785156 11.60503906 7.66398437 12.29210937 8 13 C6.68 12.34 5.36 11.68 4 11 C4 10.01 4 9.02 4 8 C3.34 8 2.68 8 2 8 C1.34 5.36 0.68 2.72 0 0 Z " fill="#DF746A" transform="translate(389,533)"/>
<path d="M0 0 C0.66 0 1.32 0 2 0 C2 0.99 2 1.98 2 3 C2.66 3 3.32 3 4 3 C5.83691257 6.78187881 6.15837626 8.94568308 5 13 C3.09610151 10.14415227 2.30537823 8.0688238 1.375 4.8125 C0.98441406 3.46091797 0.98441406 3.46091797 0.5859375 2.08203125 C0.39257812 1.39496094 0.19921875 0.70789063 0 0 Z " fill="#E36A67" transform="translate(557,505)"/>
<path d="M0 0 C0.33 0 0.66 0 1 0 C1.99 4.29 2.98 8.58 4 13 C2 12 2 12 0 9 C-0.99 9.495 -0.99 9.495 -2 10 C-1.34 6.7 -0.68 3.4 0 0 Z " fill="#D27979" transform="translate(442,496)"/>
<path d="M0 0 C5.94 0 11.88 0 18 0 C18.33 1.65 18.66 3.3 19 5 C18.51080078 4.27876953 18.51080078 4.27876953 18.01171875 3.54296875 C14.92602726 1.17627334 11.55844033 1.42700473 7.8125 1.3125 C7.06291016 1.27833984 6.31332031 1.24417969 5.54101562 1.20898438 C3.69453162 1.12665706 1.84729006 1.06164719 0 1 C0 0.67 0 0.34 0 0 Z " fill="#DD6A64" transform="translate(244,483)"/>
<path d="M0 0 C6.14587738 0.1205074 6.14587738 0.1205074 8.578125 2.625 C9.80796624 4.37787717 10.94469135 6.13740456 12 8 C11.01 8 10.02 8 9 8 C6 4.66666667 6 4.66666667 6 2 C3.03 1.505 3.03 1.505 0 1 C0 0.67 0 0.34 0 0 Z " fill="#D87772" transform="translate(377,523)"/>
<path d="M0 0 C1.25955231 3.77865693 0.48087189 5.03411786 -0.9375 8.6875 C-1.31777344 9.68136719 -1.69804687 10.67523438 -2.08984375 11.69921875 C-2.39019531 12.45847656 -2.69054687 13.21773438 -3 14 C-3.33 14 -3.66 14 -4 14 C-4 11.69 -4 9.38 -4 7 C-3.34 7 -2.68 7 -2 7 C-1.855625 6.21625 -1.71125 5.4325 -1.5625 4.625 C-1 2 -1 2 0 0 Z " fill="#DE675C" transform="translate(431,488)"/>
<path d="M0 0 C1.09898702 3.29696105 0.87124444 4.40494903 0.0625 7.6875 C-0.22947266 8.89986328 -0.22947266 8.89986328 -0.52734375 10.13671875 C-0.68332031 10.75160156 -0.83929688 11.36648438 -1 12 C-1.66 12 -2.32 12 -3 12 C-3.34833144 7.12335991 -2.41685712 4.22949995 0 0 Z " fill="#D9AAA4" transform="translate(104,459)"/>
<path d="M0 0 C3.33557632 2.9905167 5.15083921 5.93184627 7 10 C5.68 9.67 4.36 9.34 3 9 C3 8.01 3 7.02 3 6 C2.34 6 1.68 6 1 6 C0.67 4.02 0.34 2.04 0 0 Z " fill="#E37269" transform="translate(274,530)"/>
<path d="M0 0 C3.32368224 1.10789408 3.61563093 1.48436217 5.25 4.375 C5.60578125 4.98085938 5.9615625 5.58671875 6.328125 6.2109375 C7 8 7 8 6 11 C5.17977251 9.92250558 4.36913831 8.83770492 3.5625 7.75 C3.11003906 7.14671875 2.65757813 6.5434375 2.19140625 5.921875 C0.96099003 3.93707244 0.43887332 2.28012345 0 0 Z " fill="#FEDCD4" transform="translate(124,528)"/>
<path d="M0 0 C0.99 0.33 1.98 0.66 3 1 C1.35 3.64 -0.3 6.28 -2 9 C-3 5 -3 5 -1.5625 2.25 C-1.046875 1.5075 -0.53125 0.765 0 0 Z " fill="#F1D9D1" transform="translate(587,567)"/>
<path d="M0 0 C1.0326802 2.78823655 1.04509293 3.8677274 0.0625 6.75 C-0.288125 7.4925 -0.63875 8.235 -1 9 C-2.38111722 6.7252187 -3.05694702 5.49828639 -2.75 2.8125 C-2 1 -2 1 0 0 Z " fill="#E1DFDF" transform="translate(645,525)"/>
<path d="M0 0 C0.66 0 1.32 0 2 0 C1.7834375 0.99 1.7834375 0.99 1.5625 2 C0.87700084 5.65599551 0.43824485 9.30622195 0 13 C-0.33 13 -0.66 13 -1 13 C-1.02686553 11.02090602 -1.04633375 9.04171029 -1.0625 7.0625 C-1.07410156 5.96035156 -1.08570313 4.85820312 -1.09765625 3.72265625 C-1 1 -1 1 0 0 Z " fill="#EAE9E6" transform="translate(623,507)"/>
<path d="M0 0 C0.99 0 1.98 0 3 0 C1.515 5.445 1.515 5.445 0 11 C-1.04973814 6.80104745 -0.72795155 4.20594226 0 0 Z " fill="#FBDAD7" transform="translate(537,500)"/>
<path d="M0 0 C0.66 0 1.32 0 2 0 C1.71788123 1.6266848 1.42397625 3.25132896 1.125 4.875 C0.96257812 5.77992188 0.80015625 6.68484375 0.6328125 7.6171875 C0 10 0 10 -2 12 C-1.85904936 10.3745692 -1.71207913 8.74965949 -1.5625 7.125 C-1.48128906 6.22007812 -1.40007812 5.31515625 -1.31640625 4.3828125 C-1 2 -1 2 0 0 Z " fill="#E06F6B" transform="translate(425,502)"/>
<path d="M0 0 C1.32 0.33 2.64 0.66 4 1 C2.02 3.97 0.04 6.94 -2 10 C-3.39195915 5.82412255 -1.82323219 3.86525224 0 0 Z " fill="#E06661" transform="translate(180,492)"/>
<path d="M0 0 C0.33 0 0.66 0 1 0 C1 3.96 1 7.92 1 12 C-0.98 11.34 -2.96 10.68 -5 10 C-4.360625 9.835 -3.72125 9.67 -3.0625 9.5 C-0.83880759 8.218214 -0.83880759 8.218214 -0.51171875 6.0859375 C-0.2724022 4.06424845 -0.13106972 2.03158061 0 0 Z " fill="#FEDFDE" transform="translate(169,487)"/>
<path d="M0 0 C0.99 0 1.98 0 3 0 C4.20272819 2.40545638 4.10071472 3.94996953 4.0625 6.625 C4.05347656 7.44226563 4.04445313 8.25953125 4.03515625 9.1015625 C4.02355469 9.72804688 4.01195312 10.35453125 4 11 C2.12498358 7.43904445 1.04669153 3.8877114 0 0 Z " fill="#F7CEC8" transform="translate(587,457)"/>
<path d="M0 0 C0 0.66 0 1.32 0 2 C-2.31 2.33 -4.62 2.66 -7 3 C-6.67 2.01 -6.34 1.02 -6 0 C-3 -1 -3 -1 0 0 Z " fill="#DCD8D2" transform="translate(718,538)"/>
<path d="M0 0 C-0.33 1.32 -0.66 2.64 -1 4 C-3.97 4 -6.94 4 -10 4 C-8.68 3.34 -7.36 2.68 -6 2 C-5.29875 1.62875 -4.5975 1.2575 -3.875 0.875 C-2 0 -2 0 0 0 Z " fill="#FEDDD7" transform="translate(170,532)"/>
<path d="M0 0 C1 3 1 3 0.22265625 4.82421875 C-0.8515625 6.54947917 -1.92578125 8.27473958 -3 10 C-4 8 -4 8 -3.0625 4.875 C-2.5365625 3.451875 -2.5365625 3.451875 -2 2 C-1.34 2 -0.68 2 0 2 C0 1.34 0 0.68 0 0 Z " fill="#FCDAD9" transform="translate(233,526)"/>
<path d="M0 0 C3 1 3 1 4.75 3.875 C6 7 6 7 5 10 C4.16121545 8.71186658 3.32913217 7.41936744 2.5 6.125 C2.0359375 5.40570312 1.571875 4.68640625 1.09375 3.9453125 C0 2 0 2 0 0 Z " fill="#E2726D" transform="translate(278,512)"/>
<path d="M0 0 C0.66 0.33 1.32 0.66 2 1 C1.44271087 4.34373475 0.64826111 7.03312999 -1 10 C-2.31223496 6.06329512 -1.24296256 3.87511856 0 0 Z " fill="#DDDBD9" transform="translate(662,502)"/>
<path d="M0 0 C0.33 0 0.66 0 1 0 C1.1875 2.875 1.1875 2.875 1 6 C0.01 6.66 -0.98 7.32 -2 8 C-2.125 5.125 -2.125 5.125 -2 2 C-1.34 1.34 -0.68 0.68 0 0 Z " fill="#F15F57" transform="translate(442,504)"/>
<path d="M0 0 C1.32 0.33 2.64 0.66 4 1 C3.38125 1.598125 2.7625 2.19625 2.125 2.8125 C-0.13676954 5.00811144 -0.13676954 5.00811144 -2 8 C-2.20086443 4.28400809 -2.1519437 3.22791555 0 0 Z " fill="#FDE0D8" transform="translate(193,498)"/>
<path d="M0 0 C0.66 0 1.32 0 2 0 C1.74438677 2.3431213 1.40729228 4.67843403 1 7 C0.01 7.495 0.01 7.495 -1 8 C-1.125 2.25 -1.125 2.25 0 0 Z " fill="#C3C0BE" transform="translate(773,528)"/>
<path d="M0 0 C0.66 0 1.32 0 2 0 C5.22265625 5.17578125 5.22265625 5.17578125 6 7 C5.67 7.99 5.34 8.98 5 10 C3.35 6.7 1.7 3.4 0 0 Z " fill="#FEE2DC" transform="translate(260,506)"/>
</svg>
